<svg width="508" height="461" version="1.1" xmlns="http://www.w3.org/2000/svg" desc="Created with imagetracer.js version 1.2.6" ><path fill="rgb(0,0,0)" stroke="rgb(0,0,0)" stroke-width="1" opacity="0" d="M 0 0 L 141 0.5 L 128.5 2 L 121 5.5 L 120 38.5 Q 121.3 42.3 127.5 41 L 136.5 39 L 171.5 39 L 172.5 40 L 181.5 40 L 184 35.5 L 184 6.5 L 178.5 3 L 163 0.5 L 508 0 L 508 322.5 L 505.5 323 L 476.5 340 L 479 336.5 L 487 320.5 L 488 308.5 L 483 290.5 L 473.5 277 L 471 277.5 Q 484.4 289.6 486 313.5 L 484 323.5 L 480 331.5 L 470.5 342 L 462.5 348 Q 459.5 351 452.5 350 L 450 352.5 Q 451.1 355.8 448.5 355 L 422.5 365 L 404.5 369 L 392.5 370 L 391.5 371 L 380.5 371 L 379.5 372 L 359.5 372 L 358.5 371 L 348.5 371 L 347.5 370 L 340.5 370 L 330.5 368 L 305 359 Q 302.5 347.2 294.5 340 L 286.5 335 L 281.5 335 Q 279.3 335.8 280 339.5 Q 283.7 348.3 291.5 353 L 304 361.5 Q 306.8 370.2 305 383.5 L 302 395.5 L 296.5 403 Q 289 410 272.5 408 Q 254.1 404.4 240.5 396 Q 215.8 381.7 196 362.5 L 196 352.5 L 199 337.5 Q 204.6 319.1 213 303.5 Q 246 246 284.5 194 L 295.5 203 L 300.5 204 L 333.5 228 L 341.5 231 Q 349.8 229.7 354.5 232 L 355.5 231 L 366.5 231 L 385.5 227 L 412.5 217 L 414 220 L 417.5 222 L 421.5 222 L 423 221.5 Q 421.9 232.6 424 239 L 389 254 L 388 258.5 L 395.5 264 L 427.5 278 L 505 244.5 L 504 188.5 L 500.5 183 L 493.5 184 L 430.5 214 L 425.5 210 L 418.5 208 L 407.5 202 Q 402.8 203.2 401.5 201 L 355.5 201 L 339 185.5 L 305.5 148 Q 295.1 136.4 280 129.5 Q 282 126.5 287.5 127 L 288.5 128 L 299.5 128 L 306 122.5 L 307.5 120 Q 324 128.5 335.5 142 L 367.5 102 L 394.5 123 L 397.5 123 L 404 115.5 L 405 110.5 L 379 88.5 Q 383.2 85.7 384 79.5 L 378 69.5 L 378 66.5 L 366.5 54 Q 329.6 19.2 268 10 Q 266.9 12.7 269.5 12 L 285.5 15 L 306.5 21 L 321.5 27 L 335 34.5 L 333.5 34 Q 315.2 24.3 293.5 18 L 274.5 14 L 253.5 14 L 251 16.5 L 244 32.5 L 224 85.5 L 252 92.5 L 248.5 93 L 233 90 Q 231.9 92.7 234.5 92 L 259 97 L 258 103.5 L 259 108.5 L 257 117 L 232.5 107 L 227.5 106 L 210.5 106 L 209.5 107 L 202.5 107 L 191 109 Q 192.4 113 185.5 111 L 163.5 116 L 125.5 96 L 114 86.5 L 106.5 78 L 95.5 73 L 79.5 72 L 74 74 L 73 77.5 L 74 81.5 Q 71.8 82.7 73 87.5 L 88.5 108 Q 92.5 111 99.5 111 L 100.5 110 L 110.5 120 Q 125 136.5 145.5 147 L 157.5 152 L 169.5 153 L 170.5 152 L 180.5 152 L 198 149 L 193 158 L 97.5 158 L 92 162.5 L 92 186.5 L 93 189 L 96.5 191 L 168 191 L 157 211.5 L 157 215 L 138.5 210 L 116.5 210 Q 98.7 213.2 89.5 225 L 85 218.5 L 75 196.5 L 69 177.5 L 68 166.5 L 67 165.5 L 67 157.5 L 70 147.5 L 74.5 143 L 79.5 142 L 86 145.5 Q 85 151 88.5 152 L 93 151 Q 94.3 146.4 91.5 145 L 89.5 144 L 88.5 145 L 85.5 142 Q 82.6 139.4 76.5 140 Q 70.4 141.4 68 146.5 L 65 156.5 L 65 166.5 L 68 182.5 L 73 197.5 L 88 227.5 L 83 233.5 L 80 243.5 L 79 259.5 L 78 260.5 L 78 276.5 L 79 277.5 L 80 296.5 L 83 310.5 Q 85.8 322.2 92.5 330 L 96 331.5 L 100 340.5 L 100 345.5 L 95 365.5 L 97.5 369 L 100 367.5 L 124 331.5 L 125 324.5 L 123 321.5 L 126 320.5 L 124 316.5 L 120 298.5 L 119 277.5 L 121 278.5 L 135 298.5 L 134 300.5 L 136.5 304 Q 141.9 302.1 141 305.5 L 146 310.5 L 146 314.5 L 143 320.5 L 140 333.5 L 139 354.5 L 142 369.5 L 150 388.5 Q 165.1 414.4 185.5 435 L 189 432.5 L 190.5 430 Q 193.6 431.4 193 436.5 L 188 453.5 L 188 458.5 L 189 461 L 0 461 L 0 142 L 8 142 L 8 153 L 20 153 L 20 141 L 9 141 L 9 134.5 L 7 134 L 7 140 L 1.5 140 L 0 140.5 L 0 0 Z M 398 10 L 397 17 L 391 17 L 391 18 L 397 18 L 397 29 L 410 29 L 410 17 L 398 17 L 398 10 Z M 42 17 Q 38 18 39 23 Q 40 25 45 24 Q 47 23 46 19 Q 45 16 42 17 Z M 452 41 L 436 44 L 434 46 L 434 54 L 414 61 L 414 66 L 438 138 L 442 142 L 461 135 Q 462 129 460 127 L 466 125 L 464 95 L 462 84 L 462 75 L 461 74 L 461 64 L 460 63 L 460 54 L 458 43 Q 457 40 452 41 Z M 177 67 L 175 68 L 171 73 L 172 80 L 177 83 L 184 82 L 187 78 Q 188 71 185 69 Q 183 66 177 67 Z M 37 85 L 29 92 L 29 95 L 39 105 Q 43 104 42 107 L 45 108 L 51 103 L 48 96 L 40 87 L 37 85 Z M 406 148 L 406 161 L 419 161 L 419 150 L 418 148 L 406 148 Z M 407 311 L 401 323 L 402 324 L 415 324 L 409 313 Q 410 310 407 311 Z M 56 369 L 53 372 L 54 375 Q 53 378 59 376 Q 61 376 61 372 Q 60 368 56 369 Z M 90 421 L 87 426 L 82 447 Q 91 456 108 459 L 130 459 L 132 458 L 135 431 L 113 429 L 90 421 Z " /><path fill="rgb(0,0,0)" stroke="rgb(0,0,0)" stroke-width="1" opacity="0" d="M 142.5 2 L 169.5 3 L 182 7.5 L 182 32.5 L 181 38 L 173.5 38 L 172.5 37 L 135.5 37 L 134.5 38 L 123.5 39 L 122 37.5 L 122 25.5 L 123 24.5 L 123 6 L 142.5 2 Z M 132 10 Q 129 11 129 15 Q 130 18 135 17 Q 138 17 137 13 Q 136 9 132 10 Z M 165 12 L 153 22 L 144 14 L 130 30 L 129 33 L 137 33 L 138 32 L 168 32 L 169 33 L 176 33 L 176 21 L 165 12 Z " /><path fill="rgb(0,0,0)" stroke="rgb(0,0,0)" stroke-width="1" opacity="0" d="M 132.5 12 L 135 13.5 L 132.5 15 Q 129.5 13.5 132.5 12 Z " /><path fill="rgb(0,0,0)" stroke="rgb(0,0,0)" stroke-width="1" opacity="0" d="M 164.5 15 L 174 21.5 L 174 31 L 169.5 31 L 168.5 30 L 160.5 30 L 154 23.5 L 164.5 15 Z " /><path fill="rgb(0,0,0)" stroke="rgb(0,0,0)" stroke-width="1" opacity="0" d="M 143 17 L 144.5 17 L 157 29.5 L 155.5 29 L 132.5 31 L 138 24.5 L 143 17 Z " /><path fill="rgb(0,0,0)" stroke="rgb(0,0,0)" stroke-width="1" opacity="0" d="M 37.5 86 L 47 97.5 L 40.5 104 L 30 93.5 L 31.5 91 L 37.5 86 Z " /><path fill="rgb(0,0,0)" stroke="rgb(0,0,0)" stroke-width="1" opacity="0" d="M 129.5 259 L 135.5 259 L 145.5 262 L 164 273.5 L 147.5 309 L 141 301.5 Q 141.8 297.8 139.5 297 L 136 295.5 L 121 275.5 L 120 271.5 L 125.5 261 L 129.5 259 Z " /><path fill="rgb(0,0,0)" stroke="rgb(0,0,0)" stroke-width="1" opacity="0" d="M 506.5 325 L 508 325.5 L 508 461 L 192.5 461 L 192 459.5 L 216 424.5 L 218 418.5 L 217 414.5 L 208 405.5 L 208 403.5 Q 211.5 402 209 400.5 L 200 381.5 L 197 367.5 L 199.5 369 Q 221.3 389.2 249.5 403 L 272.5 410 L 286.5 410 Q 295.9 407.9 301 401.5 L 304 396.5 L 307 383.5 L 307 364.5 L 306 362 L 322.5 368 L 340.5 372 L 357.5 373 L 358.5 374 L 380.5 374 L 381.5 373 L 392.5 373 L 415.5 369 L 434.5 363 L 434.5 364 L 402 382.5 Q 403.3 385.3 404.5 383 L 444.5 360 L 452.5 357 L 455.5 358 L 460.5 351 L 506.5 325 Z M 465 362 L 464 370 Q 466 371 465 376 L 467 377 L 468 375 L 466 374 L 465 365 Q 467 363 465 362 Z M 467 364 L 468 366 L 469 366 L 467 364 Z M 470 366 L 471 368 L 472 368 L 470 366 Z M 473 368 L 473 370 L 468 373 L 469 374 Q 471 371 476 371 L 473 368 Z M 334 384 L 331 385 L 330 388 L 331 393 Q 332 395 338 394 Q 341 393 340 387 Q 339 383 334 384 Z M 400 400 L 386 411 L 366 421 L 363 424 Q 367 437 375 446 Q 400 441 414 425 L 414 421 L 404 401 L 400 400 Z M 485 424 L 483 425 Q 480 426 481 430 Q 482 433 487 432 Q 489 431 488 427 L 485 424 Z " /><path fill="rgb(0,0,0)" stroke="rgb(0,0,0)" stroke-width="1" opacity="0" d="M 282 337 L 286.5 337 L 298 347.5 L 302 356.5 L 299.5 355 Q 290.8 350.8 285 343.5 L 282 337 Z " /><path fill="rgb(0,0,0)" stroke="rgb(0,0,0)" stroke-width="1" opacity="0" d="M 400.5 402 Q 408 411 412 423.5 Q 398.6 438.6 375.5 444 L 365 424.5 Q 385.4 415.9 400.5 402 Z M 398 408 L 383 419 L 369 425 L 373 433 L 375 434 L 385 435 L 388 424 L 397 426 L 400 413 Q 402 407 398 408 Z M 403 419 Q 400 420 401 424 L 405 425 Q 408 425 407 421 Q 406 418 403 419 Z " /><path fill="rgb(0,0,0)" stroke="rgb(0,0,0)" stroke-width="1" opacity="0" d="M 397.5 411 L 397 412.5 L 395.5 424 L 384 420.5 L 397.5 411 Z " /><path fill="rgb(0,0,0)" stroke="rgb(0,0,0)" stroke-width="1" opacity="0" d="M 403 421 L 405 421.5 L 403 422.5 L 403 421 Z " /><path fill="rgb(0,0,0)" stroke="rgb(0,0,0)" stroke-width="1" opacity="0" d="M 379.5 422 L 386 423 L 383 433 L 375 432 L 372 426.5 L 379.5 422 Z " /><path fill="rgb(241,244,245)" stroke="rgb(241,244,245)" stroke-width="1" opacity="0.9803921568627451" d="M 141.5 0 L 162.5 0 Q 164 2.5 169.5 1 L 181.5 4 L 184 6.5 L 184 35.5 L 181.5 40 L 172.5 40 L 171.5 39 L 136.5 39 L 133.5 40 L 122.5 41 L 120 38.5 L 120 24.5 L 121 23.5 L 121 5.5 L 122.5 4 L 141.5 0 Z M 143 2 L 123 6 L 123 25 L 122 26 L 122 38 L 124 39 L 135 38 L 136 37 L 173 37 L 174 38 L 181 38 L 182 36 L 182 8 L 170 3 L 143 2 Z " /><path fill="rgb(241,244,245)" stroke="rgb(241,244,245)" stroke-width="1" opacity="0.9803921568627451" d="M 253.5 14 L 273.5 14 Q 274.8 16.3 279.5 15 L 293.5 18 L 311.5 24 L 344.5 40 Q 361 50.5 374 64.5 Q 381.2 70.8 384 81.5 L 378.5 88 L 376 88.5 L 404 111.5 L 396.5 122 L 367.5 100 L 367 102.5 L 336.5 141 L 334.5 141 L 325.5 132 L 324 132 Q 325.1 129.3 322.5 130 L 308 118.5 Q 307.3 116.3 309.5 117 L 313.5 119 L 312.5 117 L 309 115.5 L 316.5 98 L 321.5 106 Q 324.7 108.3 331.5 107 Q 338.4 105.4 342 100.5 L 344 92.5 Q 342.2 84.3 336.5 80 Q 331.9 76.9 324 78 L 322 70.5 L 318 66.5 L 309.5 50 L 304.5 59 L 304 57.5 L 309 47.5 L 307.5 45 L 302 56 L 294.5 54 Q 287.5 55 284.5 60 L 284 54 Q 279.3 53.3 278 57.5 L 276.5 65 L 274.5 62 L 269.5 60 L 270.5 62 L 276 66.5 Q 268.5 66 266 70.5 L 259.5 95 L 249.5 91 L 245.5 91 L 237.5 88 L 226.5 87 L 224 85.5 L 244 32.5 L 251 16.5 L 253.5 14 Z M 361 78 L 362 80 L 365 79 L 361 78 Z M 361 80 L 359 83 L 361 82 L 361 80 Z M 368 81 L 370 84 L 371 84 L 368 81 Z M 358 84 L 356 87 L 358 86 L 358 84 Z M 373 85 L 375 88 L 376 88 L 373 85 Z M 356 87 L 354 91 L 357 92 L 355 90 L 356 89 L 356 87 Z M 359 93 L 361 96 L 362 96 L 359 93 Z M 364 97 L 365 99 L 366 99 L 364 97 Z M 315 119 L 319 123 L 320 123 L 315 119 Z M 322 124 L 330 132 L 331 132 L 322 124 Z " /><path fill="rgb(241,244,245)" stroke="rgb(241,244,245)" stroke-width="1" opacity="0.9803921568627451" d="M 42.5 17 L 46 19.5 Q 46.5 23.5 43.5 24 L 40 22.5 Q 38.1 17.1 41.5 18 L 42.5 17 Z " /><path fill="rgb(241,244,245)" stroke="rgb(241,244,245)" stroke-width="1" opacity="0.9803921568627451" d="M 399.5 18 L 410 18 L 410 29 L 398 29 L 398 19.5 L 399.5 18 Z " /><path fill="rgb(241,244,245)" stroke="rgb(241,244,245)" stroke-width="1" opacity="0.9803921568627451" d="M 449.5 43 Q 455.5 41.5 457 44.5 L 459 69.5 L 460 70.5 L 460 79.5 L 461 80.5 L 461 90.5 L 462 91.5 L 462 101.5 L 464 111.5 L 464 123.5 L 459.5 126 L 458.5 124 L 458 127.5 L 460 134 L 441.5 140 L 440 138.5 L 435 120.5 L 415 63.5 L 420.5 60 L 434.5 55 L 437.5 60 L 438 57.5 L 436 54.5 L 435 47.5 L 436 45 L 448.5 44 L 449.5 43 Z M 439 60 L 438 64 L 439 64 L 439 60 Z M 440 64 L 439 67 L 440 67 L 440 64 Z M 441 67 L 440 70 L 441 70 L 441 67 Z M 442 70 L 441 73 L 442 73 L 442 70 Z M 443 73 L 442 77 L 447 92 L 448 92 L 443 73 Z M 449 92 L 448 96 L 449 96 L 449 92 Z M 450 96 L 449 99 L 450 99 L 450 96 Z M 451 99 L 451 105 L 452 105 L 451 99 Z M 453 105 L 452 109 L 455 118 L 456 118 L 453 105 Z M 457 118 L 457 124 L 458 124 L 457 118 Z " /><path fill="rgb(241,244,245)" stroke="rgb(241,244,245)" stroke-width="1" opacity="0.9803921568627451" d="M 406 149 L 418 149 L 418 161 L 406 161 L 406 149 Z " /><path fill="rgb(241,244,245)" stroke="rgb(241,244,245)" stroke-width="1" opacity="0.9803921568627451" d="M 108.5 168 L 179.5 168 L 180 169.5 L 180 171.5 L 179.5 173 L 108.5 173 L 107 169.5 L 108.5 168 Z " /><path fill="rgb(241,244,245)" stroke="rgb(241,244,245)" stroke-width="1" opacity="0.9803921568627451" d="M 108.5 179 L 224 179.5 L 108.5 180 L 108.5 179 Z " /><path fill="rgb(241,244,245)" stroke="rgb(241,244,245)" stroke-width="1" opacity="0.9803921568627451" d="M 407 313 Q 409.7 311.9 409 314.5 L 415 323.5 L 401.5 324 L 403 321.5 L 407 313 Z " /><path fill="rgb(241,244,245)" stroke="rgb(241,244,245)" stroke-width="1" opacity="0.9803921568627451" d="M 399.5 400 L 404 401 L 414 420.5 L 414 424.5 Q 400.1 441.1 374.5 446 L 366 432.5 L 363 426.5 L 363 423.5 L 365.5 421 L 385.5 411 L 399.5 400 Z M 401 402 Q 385 416 365 425 L 376 444 Q 399 439 412 424 Q 408 411 401 402 Z " /><path fill="rgb(241,244,245)" stroke="rgb(241,244,245)" stroke-width="1" opacity="0.9803921568627451" d="M 88 422 L 92.5 422 L 112.5 429 L 133.5 431 L 135 432.5 L 132 458 L 128.5 459 L 107.5 459 L 96.5 456 Q 87.8 452.8 82 446.5 L 88 422 Z M 95 430 L 94 432 L 97 434 L 95 430 Z M 98 434 L 97 436 L 100 438 L 98 434 Z M 130 435 L 129 437 L 131 436 L 130 435 Z M 127 437 L 114 444 L 108 445 L 100 439 L 101 441 L 90 444 L 90 445 L 100 442 L 103 442 L 107 446 Q 113 447 117 444 L 123 450 L 118 444 L 128 438 L 127 437 Z M 125 451 L 124 453 L 128 455 L 125 451 Z " /><path fill="rgb(241,244,245)" stroke="rgb(241,244,245)" stroke-width="1" opacity="0.9803921568627451" d="M 483.5 425 Q 487.3 424.3 488 426.5 Q 488.8 431.3 485.5 432 L 482 431 L 481 427.5 L 483.5 425 Z " /><path fill="rgb(66,153,230)" stroke="rgb(66,153,230)" stroke-width="1" opacity="0.9803921568627451" d="M 268.5 11 L 274.5 11 L 292.5 15 L 325.5 27 Q 355.4 41.1 376 64.5 L 378 67.5 L 359.5 50 Q 343.2 36.3 322.5 27 L 295.5 17 L 278.5 13 L 268.5 12 L 268.5 11 Z " /><path fill="rgb(66,153,230)" stroke="rgb(66,153,230)" stroke-width="1" opacity="0.9803921568627451" d="M 307.5 45 L 309 48.5 L 308 51.5 L 309 51.5 L 309.5 50 L 318 65.5 L 316.5 66 L 312.5 65 L 310 66 L 309.5 68 L 304 59.5 L 308 52.5 L 306 53.5 L 303.5 58 L 301 56.5 L 307.5 45 Z " /><path fill="rgb(66,153,230)" stroke="rgb(66,153,230)" stroke-width="1" opacity="0.9803921568627451" d="M 434.5 54 L 437 55.5 L 461 133.5 L 455.5 137 L 441.5 141 L 439 138.5 L 414 63.5 L 415 61 L 434.5 54 Z M 435 55 L 421 60 L 415 64 L 435 121 L 440 139 L 442 140 L 460 134 L 438 61 L 435 55 Z " /><path fill="rgb(66,153,230)" stroke="rgb(66,153,230)" stroke-width="1" opacity="0.9803921568627451" d="M 361 78 L 364.5 78 L 378 88 Q 376.9 90.7 379.5 90 L 405 111.5 L 396.5 123 L 354 90.5 L 354 88.5 L 361 78 Z M 363 79 L 355 90 L 397 122 L 404 112 L 365 79 L 363 79 Z " /><path fill="rgb(66,153,230)" stroke="rgb(66,153,230)" stroke-width="1" opacity="0.9803921568627451" d="M 233.5 91 L 239.5 91 L 259 95 L 258.5 97 L 244.5 93 L 233.5 92 L 233.5 91 Z " /><path fill="rgb(66,153,230)" stroke="rgb(66,153,230)" stroke-width="1" opacity="0.9803921568627451" d="M 219.5 106 Q 242.7 107.3 256 118.5 L 256 130.5 L 259.5 134 L 266.5 135 Q 267.8 132.8 272.5 134 L 279.5 130 Q 300.9 140.7 315 158.5 L 323 167.5 L 323 170.5 L 318 180 Q 315.3 178.9 316 181.5 L 310 190 L 308 190 L 308 192 Q 305.3 190.9 306 193.5 L 299 202 L 296.5 203 L 286.5 188 L 237.5 262 L 231.5 261 L 203.5 246 L 157 213.5 Q 161.4 200.4 169.5 191 L 226.5 191 L 233 186.5 L 234 183.5 L 234 164.5 L 230.5 160 L 227.5 158 L 193 157.5 L 200 148.5 L 195 139.5 L 193 128.5 L 193 120.5 L 192 119.5 L 192 110 L 205.5 107 L 218.5 107 L 219.5 106 Z M 254 120 L 251 125 L 253 135 Q 256 139 262 140 Q 273 140 280 136 L 281 134 L 269 138 L 258 137 L 253 131 Q 252 124 255 121 L 254 120 Z " /><path fill="rgb(66,153,230)" stroke="rgb(66,153,230)" stroke-width="1" opacity="0.9803921568627451" d="M 309.5 116 Q 322.1 121.9 331 131.5 L 329.5 132 Q 321.9 123.1 310.5 118 L 309.5 116 Z " /><path fill="rgb(66,153,230)" stroke="rgb(66,153,230)" stroke-width="1" opacity="0.9803921568627451" d="M 74.5 141 Q 83.9 139.6 87 144.5 L 85.5 145 Q 83.3 140.7 75.5 142 L 70 146.5 L 67 153.5 L 67 170.5 L 73 192.5 L 79 207.5 L 89 226.5 L 87 225.5 Q 76.1 206.9 69 184.5 L 66 170.5 L 66 153.5 L 69 145.5 L 71.5 143 L 74.5 141 Z " /><path fill="rgb(66,153,230)" stroke="rgb(66,153,230)" stroke-width="1" opacity="0.9803921568627451" d="M 90.5 230 L 91.5 232 L 90.5 230 Z " /><path fill="rgb(66,153,230)" stroke="rgb(66,153,230)" stroke-width="1" opacity="0.9803921568627451" d="M 92.5 233 L 106 254.5 L 104 253.5 L 92 234.5 L 92.5 233 Z " /><path fill="rgb(66,153,230)" stroke="rgb(66,153,230)" stroke-width="1" opacity="0.9803921568627451" d="M 106.5 256 L 138 298.5 L 133 294.5 L 106.5 256 Z " /><path fill="rgb(66,153,230)" stroke="rgb(66,153,230)" stroke-width="1" opacity="0.9803921568627451" d="M 472.5 277 Q 480.8 284.7 485 296.5 L 487 303.5 L 487 319.5 Q 483.5 333 474 340.5 L 475.5 341 L 507.5 323 L 506.5 325 L 458 352.5 L 457 357 L 451.5 356 L 403.5 383 L 404.5 381 L 437 362.5 L 435.5 362 L 413.5 369 L 389.5 372 L 388.5 373 L 350.5 373 L 327.5 369 L 305.5 361 L 306 362.5 L 307 381.5 L 303 397.5 L 295.5 406 L 288.5 409 L 276.5 410 L 261.5 407 L 248.5 402 L 221.5 386 Q 192 364 168 336.5 L 139 301.5 L 144 305.5 Q 167 337 195.5 363 Q 215.2 381.8 239.5 396 L 265.5 407 L 281.5 409 L 290.5 407 L 299 401.5 L 303 394.5 L 305 386.5 L 306 371.5 L 305 370.5 L 305 362.5 L 302.5 359 Q 289.9 353.1 282 342.5 L 281 335 Q 292.9 335.9 298 344.5 L 304 357.5 L 306.5 360 L 321.5 366 L 343.5 371 L 353.5 371 L 354.5 372 L 384.5 372 L 385.5 371 L 395.5 371 L 396.5 370 L 407.5 369 L 424.5 365 L 451 355 L 451 351 L 452.5 351 L 454.5 350 L 457.5 351 Q 471.7 344.7 480 332.5 Q 487 323.5 486 306.5 L 481 290.5 L 472.5 277 Z M 284 336 L 282 338 Q 283 344 287 347 L 302 357 L 303 358 L 297 346 Q 293 338 284 336 Z " /><path fill="rgb(66,153,230)" stroke="rgb(66,153,230)" stroke-width="1" opacity="0.9803921568627451" d="M 93.5 428 Q 99 438 107.5 445 L 113.5 444 L 130.5 435 L 129.5 437 L 118 443.5 L 128 454.5 L 126.5 455 L 116.5 444 Q 113.2 446.7 106.5 446 L 102.5 442 L 99.5 442 L 89.5 445 L 89.5 444 L 101 440.5 L 94 431.5 L 93.5 428 Z " /><path fill="rgb(235,151,122)" stroke="rgb(235,151,122)" stroke-width="1" opacity="0.9725490196078431" d="M 451.5 41 L 453.5 41 Q 457.9 39.5 457 42.5 L 459 45.5 L 459 54.5 L 461 64.5 L 461 66.5 L 462 86.5 L 464 95.5 L 464 97.5 L 466 123.5 Q 464.7 127.7 460 127 Q 458.8 124 462.5 125 L 464 123.5 L 464 111.5 L 462 101.5 L 462 91.5 L 461 90.5 L 458 50.5 Q 455.8 49.3 457 44.5 L 455.5 43 L 436 45 L 435 48.5 L 436 53.5 L 434 52.5 Q 432.5 45.5 436.5 44 L 451.5 41 Z " /><path fill="rgb(235,151,122)" stroke="rgb(235,151,122)" stroke-width="1" opacity="0.9725490196078431" d="M 269.5 60 L 272 60.5 Q 269.9 63.8 269.5 60 Z " /><path fill="rgb(235,151,122)" stroke="rgb(235,151,122)" stroke-width="1" opacity="0.9725490196078431" d="M 272.5 62 L 276 63.5 L 275.5 66 L 272.5 62 Z " /><path fill="rgb(235,151,122)" stroke="rgb(235,151,122)" stroke-width="1" opacity="0.9725490196078431" d="M 176.5 67 Q 182.7 66.4 185 69 Q 187.6 71.3 187 77.5 L 183.5 82 L 176.5 83 L 172 79.5 L 171 72.5 L 174.5 68 L 176.5 67 Z " /><path fill="rgb(235,151,122)" stroke="rgb(235,151,122)" stroke-width="1" opacity="0.9725490196078431" d="M 268.5 68 L 266.5 71 L 268.5 68 Z " /><path fill="rgb(235,151,122)" stroke="rgb(235,151,122)" stroke-width="1" opacity="0.9725490196078431" d="M 77.5 73 L 93.5 73 L 99.5 75 L 102 77.5 L 109 90 L 111 89.5 L 103 77.5 L 104.5 77 L 119.5 93 L 159.5 115 L 164.5 116 L 191 111 L 189 119.5 L 189 133.5 Q 191.3 134.8 190 139.5 L 194 148.5 L 176.5 152 L 158.5 152 Q 139.8 145.2 125.5 134 L 101.5 110 Q 89.3 111.7 86 104.5 L 87.5 101 L 94.5 100 L 99 97.5 Q 98.8 86.8 91.5 83 Q 88 79.5 80.5 80 L 76.5 81 Q 73.3 80.3 74 75.5 L 77.5 73 Z " /><path fill="rgb(235,151,122)" stroke="rgb(235,151,122)" stroke-width="1" opacity="0.9725490196078431" d="M 336.5 80 L 339.5 84 L 336.5 80 Z " /><path fill="rgb(235,151,122)" stroke="rgb(235,151,122)" stroke-width="1" opacity="0.9725490196078431" d="M 275.5 83 L 279 85.5 L 278 94.5 L 281.5 96 L 283 94.5 L 284 86.5 L 285.5 84 L 294.5 90 L 300.5 90 Q 303.5 87 310.5 88 L 315 91.5 L 317 97.5 L 315 99.5 L 307 120.5 L 302.5 126 Q 298.5 129 290.5 128 Q 289 125.5 283.5 127 L 272.5 134 L 261.5 135 L 256 130.5 L 256 118.5 L 259.5 108 L 263.5 109 Q 268.5 105.8 269 99 L 272.5 100 L 270 96.5 L 269 89.5 L 273.5 84 L 275.5 83 Z " /><path fill="rgb(235,151,122)" stroke="rgb(235,151,122)" stroke-width="1" opacity="0.9725490196078431" d="M 343.5 92 L 344 95.5 L 343 95.5 L 343.5 92 Z " /><path fill="rgb(235,151,122)" stroke="rgb(235,151,122)" stroke-width="1" opacity="0.9725490196078431" d="M 341.5 100 L 340.5 102 L 341.5 100 Z " /><path fill="rgb(235,151,122)" stroke="rgb(235,151,122)" stroke-width="1" opacity="0.9725490196078431" d="M 319.5 103 L 321.5 106 L 319.5 103 Z " /><path fill="rgb(235,151,122)" stroke="rgb(235,151,122)" stroke-width="1" opacity="0.9725490196078431" d="M 9.5 141 L 20 141 L 20 153 L 8 153 L 8 142.5 L 9.5 141 Z " /><path fill="rgb(235,151,122)" stroke="rgb(235,151,122)" stroke-width="1" opacity="0.9725490196078431" d="M 98.5 158 L 227.5 158 L 233 162.5 L 234 164.5 L 234 183.5 L 229.5 190 L 226.5 191 L 97.5 191 L 93 189 L 92 185.5 L 92 163.5 L 95.5 159 L 98.5 158 Z M 109 168 L 107 170 L 109 173 L 180 173 L 180 172 L 180 170 L 180 168 L 109 168 Z M 109 179 L 109 180 L 224 180 L 109 179 Z " /><path fill="rgb(235,151,122)" stroke="rgb(235,151,122)" stroke-width="1" opacity="0.9725490196078431" d="M 323.5 169 L 352.5 200 L 354.5 201 L 397.5 201 L 398.5 202 L 406.5 202 L 417.5 208 L 425.5 210 L 429 213.5 L 427.5 216 L 425 217.5 L 425 219 L 423 219 Q 424.1 221.7 421.5 221 L 419.5 222 L 412.5 217 L 410.5 217 L 399.5 222 L 375.5 229 L 364.5 231 L 343.5 231 L 332.5 227 L 299 202.5 L 299 200.5 L 306 192 L 308 192 L 308 190 Q 310.7 191.1 310 188.5 L 316 180 Q 318.7 181.1 318 178.5 L 323.5 169 Z " /><path fill="rgb(235,151,122)" stroke="rgb(235,151,122)" stroke-width="1" opacity="0.9725490196078431" d="M 119.5 322 Q 123.3 321.3 124 323.5 L 125 328.5 L 99 369 Q 96.3 370.1 97 367.5 L 95 363.5 L 101 342.5 L 99 338.5 L 109.5 325 L 119.5 322 Z " /><path fill="rgb(235,151,122)" stroke="rgb(235,151,122)" stroke-width="1" opacity="0.9725490196078431" d="M 55.5 369 Q 60.3 368.3 61 371.5 Q 61.5 375.5 58.5 376 Q 53.8 376.8 53 373.5 Q 52.5 369.5 55.5 369 Z " /><path fill="rgb(235,151,122)" stroke="rgb(235,151,122)" stroke-width="1" opacity="0.9725490196078431" d="M 333.5 384 Q 338.6 383.4 340 386.5 Q 341.3 392.8 337.5 394 Q 332.3 395.3 331 392.5 L 330 387.5 L 331 385 L 333.5 384 Z " /><path fill="rgb(235,151,122)" stroke="rgb(235,151,122)" stroke-width="1" opacity="0.9725490196078431" d="M 208.5 408 L 215 412.5 Q 218.4 415.1 217 422.5 L 193 457.5 L 192 461 Q 187.9 462.7 189 458.5 L 188 454.5 L 193 437.5 L 193 432.5 L 192 430.5 L 208.5 408 Z " /><path fill="rgb(26,98,154)" stroke="rgb(26,98,154)" stroke-width="1" opacity="0.9882352941176471" d="M 132.5 10 L 137 13.5 L 136 16 Q 131.4 17.3 130 14.5 Q 128.5 10.1 131.5 11 L 132.5 10 Z M 133 11 L 131 15 Q 137 17 135 12 L 133 11 Z " /><path fill="rgb(26,98,154)" stroke="rgb(26,98,154)" stroke-width="1" opacity="0.9882352941176471" d="M 164.5 13 L 175 20.5 L 176 32 L 143.5 31 L 142.5 32 Q 133.9 31.3 129 33 L 143.5 15 L 151.5 22 L 153.5 22 L 164.5 13 Z M 164 15 L 160 18 L 154 25 L 162 31 L 175 31 L 174 20 L 167 15 L 164 15 Z M 145 16 L 133 30 L 133 31 L 158 30 L 145 16 Z " /><path fill="rgb(26,98,154)" stroke="rgb(26,98,154)" stroke-width="1" opacity="0.9882352941176471" d="M 302.5 57 L 303.5 59 L 302.5 57 Z " /><path fill="rgb(26,98,154)" stroke="rgb(26,98,154)" stroke-width="1" opacity="0.9882352941176471" d="M 285.5 59 L 284.5 61 L 285.5 59 Z " /><path fill="rgb(26,98,154)" stroke="rgb(26,98,154)" stroke-width="1" opacity="0.9882352941176471" d="M 277.5 60 L 278 62.5 L 277 62.5 L 277.5 60 Z " /><path fill="rgb(26,98,154)" stroke="rgb(26,98,154)" stroke-width="1" opacity="0.9882352941176471" d="M 305.5 61 L 306.5 63 L 305.5 61 Z " /><path fill="rgb(26,98,154)" stroke="rgb(26,98,154)" stroke-width="1" opacity="0.9882352941176471" d="M 307.5 64 L 309 67.5 L 308 67.5 L 307.5 64 Z " /><path fill="rgb(26,98,154)" stroke="rgb(26,98,154)" stroke-width="1" opacity="0.9882352941176471" d="M 312.5 65 L 316 65.5 L 312.5 66 L 312.5 65 Z " /><path fill="rgb(26,98,154)" stroke="rgb(26,98,154)" stroke-width="1" opacity="0.9882352941176471" d="M 323.5 76 L 324 78.5 L 323 78.5 L 323.5 76 Z " /><path fill="rgb(26,98,154)" stroke="rgb(26,98,154)" stroke-width="1" opacity="0.9882352941176471" d="M 326.5 78 L 330 78.5 L 326.5 79 L 326.5 78 Z " /><path fill="rgb(26,98,154)" stroke="rgb(26,98,154)" stroke-width="1" opacity="0.9882352941176471" d="M 47.5 99 L 50 100.5 Q 50.8 104.3 48.5 105 L 43.5 107 Q 40.8 105.8 43 104.5 L 47.5 99 Z " /><path fill="rgb(26,98,154)" stroke="rgb(26,98,154)" stroke-width="1" opacity="0.9882352941176471" d="M 191.5 109 L 194 134.5 L 199 149 Q 194.4 150.3 193 147.5 L 189 133.5 L 189 119.5 L 191.5 109 Z " /><path fill="rgb(26,98,154)" stroke="rgb(26,98,154)" stroke-width="1" opacity="0.9882352941176471" d="M 252.5 121 L 254 123.5 L 253 123.5 L 252.5 121 Z " /><path fill="rgb(26,98,154)" stroke="rgb(26,98,154)" stroke-width="1" opacity="0.9882352941176471" d="M 251.5 124 L 252 128.5 L 251 128.5 L 251.5 124 Z " /><path fill="rgb(26,98,154)" stroke="rgb(26,98,154)" stroke-width="1" opacity="0.9882352941176471" d="M 253.5 131 L 252.5 133 L 253.5 131 Z " /><path fill="rgb(26,98,154)" stroke="rgb(26,98,154)" stroke-width="1" opacity="0.9882352941176471" d="M 254.5 133 L 253.5 135 L 254.5 133 Z " /><path fill="rgb(26,98,154)" stroke="rgb(26,98,154)" stroke-width="1" opacity="0.9882352941176471" d="M 278.5 134 L 279.5 136 L 278.5 134 Z " /><path fill="rgb(26,98,154)" stroke="rgb(26,98,154)" stroke-width="1" opacity="0.9882352941176471" d="M 273.5 136 L 276 137.5 L 274.5 137 L 273.5 136 Z " /><path fill="rgb(26,98,154)" stroke="rgb(26,98,154)" stroke-width="1" opacity="0.9882352941176471" d="M 259.5 137 L 258.5 139 L 259.5 137 Z " /><path fill="rgb(26,98,154)" stroke="rgb(26,98,154)" stroke-width="1" opacity="0.9882352941176471" d="M 269.5 137 L 273 138.5 L 270.5 139 L 269.5 137 Z " /><path fill="rgb(26,98,154)" stroke="rgb(26,98,154)" stroke-width="1" opacity="0.9882352941176471" d="M 261.5 139 L 268 139.5 L 261.5 140 L 261.5 139 Z " /><path fill="rgb(26,98,154)" stroke="rgb(26,98,154)" stroke-width="1" opacity="0.9882352941176471" d="M 494.5 184 Q 500.8 182.8 502 186.5 L 503 231.5 L 504 232.5 L 504 244 L 433.5 274 L 426 276 L 425 272.5 L 425 252.5 L 424 251.5 L 423 222.5 L 426.5 216 L 429 216 Q 427.9 213.3 430.5 214 L 494.5 184 Z " /><path fill="rgb(26,98,154)" stroke="rgb(26,98,154)" stroke-width="1" opacity="0.9882352941176471" d="M 286.5 188 L 296 201.5 L 294.5 201 L 286 196 L 286 194 Q 283.3 195.1 284 192.5 L 286.5 188 Z " /><path fill="rgb(26,98,154)" stroke="rgb(26,98,154)" stroke-width="1" opacity="0.9882352941176471" d="M 159.5 216 L 213.5 252 L 231.5 261 L 238 262.5 L 233 271 L 220 263 Q 221.1 260.3 218.5 261 L 215 259 Q 216.1 256.3 213.5 257 L 205 251 Q 206.1 248.3 203.5 249 Q 190.7 236.3 173.5 228 L 160.5 218 L 159.5 216 Z " /><path fill="rgb(26,98,154)" stroke="rgb(26,98,154)" stroke-width="1" opacity="0.9882352941176471" d="M 88.5 227 L 91 228.5 L 92 230.5 L 91.5 232 L 93 232.5 L 91 233.5 L 90 231.5 L 90.5 230 L 89 229.5 L 89.5 228 L 88.5 227 Z " /><path fill="rgb(26,98,154)" stroke="rgb(26,98,154)" stroke-width="1" opacity="0.9882352941176471" d="M 95.5 237 L 98 240.5 L 96 241.5 L 96 239.5 L 95.5 238 L 94 238.5 L 95.5 237 Z " /><path fill="rgb(26,98,154)" stroke="rgb(26,98,154)" stroke-width="1" opacity="0.9882352941176471" d="M 98.5 242 L 98.5 245 Q 95.5 243.5 98.5 242 Z " /><path fill="rgb(26,98,154)" stroke="rgb(26,98,154)" stroke-width="1" opacity="0.9882352941176471" d="M 100.5 245 L 99.5 247 L 100.5 245 Z " /><path fill="rgb(26,98,154)" stroke="rgb(26,98,154)" stroke-width="1" opacity="0.9882352941176471" d="M 101.5 247 Q 104.5 248.5 101.5 250 L 101.5 247 Z " /><path fill="rgb(26,98,154)" stroke="rgb(26,98,154)" stroke-width="1" opacity="0.9882352941176471" d="M 103.5 250 L 103.5 253 Q 100.5 251.5 103.5 250 Z " /><path fill="rgb(26,98,154)" stroke="rgb(26,98,154)" stroke-width="1" opacity="0.9882352941176471" d="M 105.5 253 L 105.5 255 L 108 256.5 L 107.5 259 L 106.5 256 L 104 254.5 L 105.5 253 Z " /><path fill="rgb(26,98,154)" stroke="rgb(26,98,154)" stroke-width="1" opacity="0.9882352941176471" d="M 109.5 259 L 109.5 262 Q 106.5 260.5 109.5 259 Z " /><path fill="rgb(26,98,154)" stroke="rgb(26,98,154)" stroke-width="1" opacity="0.9882352941176471" d="M 111.5 262 L 111.5 265 Q 108.5 263.5 111.5 262 Z " /><path fill="rgb(26,98,154)" stroke="rgb(26,98,154)" stroke-width="1" opacity="0.9882352941176471" d="M 113.5 265 Q 116.5 266.5 113.5 268 Q 110.5 266.5 113.5 265 Z " /><path fill="rgb(26,98,154)" stroke="rgb(26,98,154)" stroke-width="1" opacity="0.9882352941176471" d="M 115.5 268 Q 120 270 116.5 272 L 115 270.5 L 115.5 268 Z " /><path fill="rgb(26,98,154)" stroke="rgb(26,98,154)" stroke-width="1" opacity="0.9882352941176471" d="M 118.5 272 Q 121.5 273.5 118.5 275 Q 115.5 273.5 118.5 272 Z " /><path fill="rgb(26,98,154)" stroke="rgb(26,98,154)" stroke-width="1" opacity="0.9882352941176471" d="M 135.5 297 L 138 297.5 L 137.5 299 L 141 301.5 L 139.5 301 L 135.5 297 Z " /><path fill="rgb(26,98,154)" stroke="rgb(26,98,154)" stroke-width="1" opacity="0.9882352941176471" d="M 148.5 311 L 150.5 316 L 148 313.5 L 148.5 311 Z " /><path fill="rgb(26,98,154)" stroke="rgb(26,98,154)" stroke-width="1" opacity="0.9882352941176471" d="M 152.5 316 L 156 319.5 L 155.5 322 L 152 318.5 L 152.5 316 Z " /><path fill="rgb(26,98,154)" stroke="rgb(26,98,154)" stroke-width="1" opacity="0.9882352941176471" d="M 157.5 322 L 161 325.5 L 160 326.5 L 161.5 329 L 158 325.5 L 159 324.5 L 157.5 322 Z " /><path fill="rgb(26,98,154)" stroke="rgb(26,98,154)" stroke-width="1" opacity="0.9882352941176471" d="M 108.5 325 L 106 328.5 L 99.5 337 Q 97.3 337.8 98 335.5 L 95 329 L 108.5 325 Z " /><path fill="rgb(26,98,154)" stroke="rgb(26,98,154)" stroke-width="1" opacity="0.9882352941176471" d="M 163.5 329 L 167 332.5 L 166 333.5 L 167.5 336 L 163 331.5 L 163.5 329 Z " /><path fill="rgb(26,98,154)" stroke="rgb(26,98,154)" stroke-width="1" opacity="0.9882352941176471" d="M 171.5 338 L 182.5 351 L 184 350.5 L 183 351.5 L 190.5 359 L 192 358.5 Q 189.7 359.7 192.5 361 Q 194.2 358.2 196 362.5 L 194.5 364 L 172 341.5 L 173 340.5 L 171.5 338 Z " /><path fill="rgb(26,98,154)" stroke="rgb(26,98,154)" stroke-width="1" opacity="0.9882352941176471" d="M 207.5 405 L 209 407.5 L 193 430 Q 190.3 431.1 191 428.5 L 207.5 405 Z " /><path fill="rgb(26,98,154)" stroke="rgb(26,98,154)" stroke-width="1" opacity="0.9882352941176471" d="M 397.5 409 L 400 409.5 L 397 425 L 388.5 424 L 383.5 434 Q 375 436 373 431.5 L 370 425 Q 386 419.7 397.5 409 Z M 397 411 L 383 421 L 396 424 L 398 415 Q 399 410 397 411 Z M 379 422 L 372 427 L 373 430 Q 375 435 384 433 L 387 423 L 379 422 Z " /><path fill="rgb(26,98,154)" stroke="rgb(26,98,154)" stroke-width="1" opacity="0.9882352941176471" d="M 403.5 419 L 407 421.5 L 406 424 Q 402.2 425 401 422.5 L 403.5 419 Z M 403 421 Q 402 424 405 423 Q 406 420 403 421 Z " /><path fill="rgb(19,52,80)" stroke="rgb(19,52,80)" stroke-width="1" opacity="0.984313725490196" d="M 397.5 10 L 399 17.5 Q 397.8 20.3 396.5 18 L 390 17.5 L 397 17 L 397.5 10 Z " /><path fill="rgb(19,52,80)" stroke="rgb(19,52,80)" stroke-width="1" opacity="0.984313725490196" d="M 282.5 54 Q 285.4 55.6 284.5 61 L 287.5 57 Q 290.8 53.8 298.5 55 L 305 60.5 L 308 68 L 311.5 66 L 316.5 66 L 320 68.5 Q 324.1 71.7 323 79 L 333.5 79 L 340 84.5 L 343 90.5 L 343 97.5 L 337.5 104 Q 333.4 107.9 324.5 107 L 319 102.5 L 315 91.5 L 312.5 89 L 304.5 88 Q 301.8 90.8 295.5 90 L 285.5 84 L 284 85.5 Q 284.8 92.8 281.5 96 L 279 95.5 L 279 85.5 L 275.5 83 L 271 85 Q 268.3 87.6 269 94.5 L 273 99.5 L 271.5 100 L 269 99 Q 268.5 105.6 263.5 109 L 259 108 L 258 101.5 L 261 93.5 L 265 73.5 L 269.5 68 L 275.5 67 L 277 65.5 L 278 58.5 L 280.5 55 L 282.5 54 Z " /><path fill="rgb(19,52,80)" stroke="rgb(19,52,80)" stroke-width="1" opacity="0.984313725490196" d="M 270.5 60 L 276 64.5 L 272.5 62 L 270.5 60 Z " /><path fill="rgb(19,52,80)" stroke="rgb(19,52,80)" stroke-width="1" opacity="0.984313725490196" d="M 100.5 75 L 103 76.5 L 111 89.5 L 109 90 L 100.5 75 Z " /><path fill="rgb(19,52,80)" stroke="rgb(19,52,80)" stroke-width="1" opacity="0.984313725490196" d="M 74.5 79 Q 75.8 82.2 81.5 81 L 83.5 80 Q 92 81.5 96 87.5 L 99 97.5 L 97.5 99 L 87.5 101 L 85.5 103 L 75 91.5 Q 72.2 88.8 73 82.5 L 74.5 79 Z " /><path fill="rgb(19,52,80)" stroke="rgb(19,52,80)" stroke-width="1" opacity="0.984313725490196" d="M 36.5 85 L 40 86.5 L 49 97.5 L 41.5 105 L 38.5 105 L 29 94.5 L 29 91.5 L 36.5 85 Z M 38 86 L 32 91 L 30 94 L 41 104 L 47 98 L 38 86 Z " /><path fill="rgb(19,52,80)" stroke="rgb(19,52,80)" stroke-width="1" opacity="0.984313725490196" d="M 253.5 120 L 254 121.5 L 253 122.5 L 253 131.5 L 257.5 137 L 270 138.5 L 259.5 139 L 254 135.5 Q 250.5 131.5 252 122.5 L 253.5 120 Z " /><path fill="rgb(19,52,80)" stroke="rgb(19,52,80)" stroke-width="1" opacity="0.984313725490196" d="M 7 134 L 9 134.5 L 9 142 L 0 141.5 Q 1.6 138.5 7 140 L 7 134 Z " /><path fill="rgb(19,52,80)" stroke="rgb(19,52,80)" stroke-width="1" opacity="0.984313725490196" d="M 279.5 134 L 281 134.5 L 272.5 138 L 272.5 137 L 279.5 134 Z " /><path fill="rgb(19,52,80)" stroke="rgb(19,52,80)" stroke-width="1" opacity="0.984313725490196" d="M 89.5 144 L 93 146.5 Q 94.9 151.9 91.5 151 L 88.5 152 Q 85 150.7 86 146 L 89.5 144 Z " /><path fill="rgb(19,52,80)" stroke="rgb(19,52,80)" stroke-width="1" opacity="0.984313725490196" d="M 496.5 183 Q 502 182 503 185.5 L 504 188.5 L 505 244.5 L 425.5 278 L 391.5 262 L 388 258.5 L 389 254 L 424 239 L 424 251.5 L 425 252.5 L 425 272.5 L 426 276 L 433.5 274 L 504 244 L 504 232.5 L 503 231.5 L 502 186.5 L 499.5 184 Q 495.5 184.8 496.5 183 Z " /><path fill="rgb(19,52,80)" stroke="rgb(19,52,80)" stroke-width="1" opacity="0.984313725490196" d="M 116.5 210 L 138.5 210 L 157.5 215 L 173.5 228 L 187.5 236 L 200.5 247 L 205 249 Q 203.9 251.7 206.5 251 L 215 257 Q 213.9 259.7 216.5 259 L 220 261 Q 218.9 263.7 221.5 263 L 232 271.5 Q 216.5 294 205 320.5 L 198 341.5 L 195.5 362 L 192 360 Q 193.1 357.3 190.5 358 L 184 350 L 178 345.5 L 150 313.5 Q 147.4 312.1 148 307.5 L 164 273.5 L 145.5 262 L 135.5 259 L 129.5 259 L 124 262.5 L 119.5 273 Q 102.2 251.3 89 225.5 Q 98.3 213.3 116.5 210 Z " /><path fill="rgb(19,52,80)" stroke="rgb(19,52,80)" stroke-width="1" opacity="0.984313725490196" d="M 87.5 228 Q 89.8 227.3 89 229.5 Q 102.4 254.1 119 275.5 L 120 298.5 L 124 316.5 L 126 320.5 L 92.5 330 Q 84.8 320.8 82 306.5 L 80 296.5 L 80 289.5 L 79 288.5 L 78 260.5 L 79 259.5 L 79 249.5 L 81 239.5 Q 82.5 231.9 87.5 228 Z " /><path fill="rgb(19,52,80)" stroke="rgb(19,52,80)" stroke-width="1" opacity="0.984313725490196" d="M 138 297 L 141 298.5 L 140.5 301 L 138 297 Z " /><path fill="rgb(19,52,80)" stroke="rgb(19,52,80)" stroke-width="1" opacity="0.984313725490196" d="M 135.5 298 L 140 304 Q 136.2 305 135 302.5 L 134 299.5 L 135.5 298 Z " /><path fill="rgb(19,52,80)" stroke="rgb(19,52,80)" stroke-width="1" opacity="0.984313725490196" d="M 146 312 Q 148.7 310.9 148 313.5 Q 169.4 340.6 194.5 364 Q 196.8 363.3 196 365.5 L 200 381.5 L 210 401.5 L 186.5 435 L 181 430.5 Q 160.2 408.8 146 380.5 L 140 361.5 L 139 340.5 L 143 320.5 L 146 312 Z " /><path fill="rgb(19,52,80)" stroke="rgb(19,52,80)" stroke-width="1" opacity="0.984313725490196" d="M 464.5 362 L 476 370.5 Q 469.5 371 467 375.5 L 466.5 377 L 465 375.5 Q 466.2 370.8 464 369.5 L 464.5 362 Z M 466 364 L 466 374 Q 469 375 468 373 L 473 370 L 466 364 Z " /><path fill="rgb(112,167,196)" stroke="rgb(112,167,196)" stroke-width="1" opacity="0.24705882352941178" d="M 131.5 10 L 133.5 10 L 137 12.5 L 134 12.5 L 134.5 11 L 131.5 13 L 131.5 10 Z " /><path fill="rgb(112,167,196)" stroke="rgb(112,167,196)" stroke-width="1" opacity="0.24705882352941178" d="M 268.5 10 L 271 10.5 L 268.5 11 L 268.5 10 Z " /><path fill="rgb(112,167,196)" stroke="rgb(112,167,196)" stroke-width="1" opacity="0.24705882352941178" d="M 129.5 12 L 130.5 15 L 132 14.5 L 131.5 16 L 135 16.5 L 131.5 17 Q 127.8 15.8 129.5 12 Z " /><path fill="rgb(112,167,196)" stroke="rgb(112,167,196)" stroke-width="1" opacity="0.24705882352941178" d="M 164.5 12 L 163 14.5 L 164 15.5 L 161.5 18 L 163 15.5 L 162 14.5 L 164.5 12 Z " /><path fill="rgb(112,167,196)" stroke="rgb(112,167,196)" stroke-width="1" opacity="0.24705882352941178" d="M 270.5 12 L 273 12.5 L 270.5 13 L 270.5 12 Z " /><path fill="rgb(112,167,196)" stroke="rgb(112,167,196)" stroke-width="1" opacity="0.24705882352941178" d="M 166.5 13 L 168 14.5 L 167.5 17 L 166 15.5 L 166.5 13 Z " /><path fill="rgb(112,167,196)" stroke="rgb(112,167,196)" stroke-width="1" opacity="0.24705882352941178" d="M 276.5 13 L 279 13.5 L 276.5 14 L 276.5 13 Z " /><path fill="rgb(112,167,196)" stroke="rgb(112,167,196)" stroke-width="1" opacity="0.24705882352941178" d="M 143.5 14 L 152 21.5 Q 149.3 23.3 153.5 25 L 154.5 24 L 160 29.5 L 155.5 30 L 151 29.5 L 156 28.5 L 144 16.5 L 144.5 15 L 141.5 17 L 143.5 14 Z " /><path fill="rgb(112,167,196)" stroke="rgb(112,167,196)" stroke-width="1" opacity="0.24705882352941178" d="M 281.5 14 L 284 14.5 L 280.5 16 L 281.5 14 Z " /><path fill="rgb(112,167,196)" stroke="rgb(112,167,196)" stroke-width="1" opacity="0.24705882352941178" d="M 169.5 15 L 172 17.5 L 171.5 20 L 169 17.5 L 169.5 15 Z " /><path fill="rgb(112,167,196)" stroke="rgb(112,167,196)" stroke-width="1" opacity="0.24705882352941178" d="M 286.5 15 L 288 15.5 L 285.5 17 L 286.5 15 Z " /><path fill="rgb(112,167,196)" stroke="rgb(112,167,196)" stroke-width="1" opacity="0.24705882352941178" d="M 159.5 16 L 160 18.5 L 156.5 22 L 156 19.5 L 159.5 16 Z " /><path fill="rgb(112,167,196)" stroke="rgb(112,167,196)" stroke-width="1" opacity="0.24705882352941178" d="M 296.5 16 L 298 16.5 L 294.5 18 L 294.5 17 L 296.5 16 Z " /><path fill="rgb(112,167,196)" stroke="rgb(112,167,196)" stroke-width="1" opacity="0.24705882352941178" d="M 43.5 17 L 46 18.5 L 44.5 18 L 43.5 17 Z " /><path fill="rgb(112,167,196)" stroke="rgb(112,167,196)" stroke-width="1" opacity="0.24705882352941178" d="M 399.5 17 L 410 17.5 L 399.5 18 L 399.5 17 Z " /><path fill="rgb(112,167,196)" stroke="rgb(112,167,196)" stroke-width="1" opacity="0.24705882352941178" d="M 142.5 18 L 139.5 22 L 138.5 21 L 135 23.5 L 139.5 19 Q 141 21.5 142.5 18 Z " /><path fill="rgb(112,167,196)" stroke="rgb(112,167,196)" stroke-width="1" opacity="0.24705882352941178" d="M 173.5 18 Q 177.5 19.5 176 26.5 L 175 26.5 L 174.5 20 L 173 20.5 L 173.5 18 Z " /><path fill="rgb(112,167,196)" stroke="rgb(112,167,196)" stroke-width="1" opacity="0.24705882352941178" d="M 39.5 19 L 41 23.5 L 39 22.5 L 39.5 19 Z " /><path fill="rgb(112,167,196)" stroke="rgb(112,167,196)" stroke-width="1" opacity="0.24705882352941178" d="M 397.5 19 L 398 28.5 L 397 28.5 L 397.5 19 Z " /><path fill="rgb(112,167,196)" stroke="rgb(112,167,196)" stroke-width="1" opacity="0.24705882352941178" d="M 154.5 20 L 153.5 22 L 154.5 20 Z " /><path fill="rgb(112,167,196)" stroke="rgb(112,167,196)" stroke-width="1" opacity="0.24705882352941178" d="M 311.5 21 L 313 21.5 L 309.5 23 L 309.5 22 L 311.5 21 Z " /><path fill="rgb(112,167,196)" stroke="rgb(112,167,196)" stroke-width="1" opacity="0.24705882352941178" d="M 45.5 22 L 44.5 24 L 45.5 22 Z " /><path fill="rgb(112,167,196)" stroke="rgb(112,167,196)" stroke-width="1" opacity="0.24705882352941178" d="M 316.5 23 L 318 23.5 L 315.5 25 L 316.5 23 Z " /><path fill="rgb(112,167,196)" stroke="rgb(112,167,196)" stroke-width="1" opacity="0.24705882352941178" d="M 137.5 24 L 133.5 29 L 132.5 28 L 130 29.5 L 134.5 25 Q 136 27.5 137.5 24 Z " /><path fill="rgb(112,167,196)" stroke="rgb(112,167,196)" stroke-width="1" opacity="0.24705882352941178" d="M 317.5 25 L 316.5 27 L 317.5 25 Z " /><path fill="rgb(112,167,196)" stroke="rgb(112,167,196)" stroke-width="1" opacity="0.24705882352941178" d="M 323.5 26 L 322.5 28 L 323.5 26 Z " /><path fill="rgb(112,167,196)" stroke="rgb(112,167,196)" stroke-width="1" opacity="0.24705882352941178" d="M 174.5 28 L 175 30.5 L 174 30.5 L 174.5 28 Z " /><path fill="rgb(112,167,196)" stroke="rgb(112,167,196)" stroke-width="1" opacity="0.24705882352941178" d="M 324.5 28 L 323.5 30 L 324.5 28 Z " /><path fill="rgb(112,167,196)" stroke="rgb(112,167,196)" stroke-width="1" opacity="0.24705882352941178" d="M 136.5 30 L 142 30.5 L 136.5 31 L 136.5 30 Z " /><path fill="rgb(112,167,196)" stroke="rgb(112,167,196)" stroke-width="1" opacity="0.24705882352941178" d="M 161.5 30 L 169 30.5 L 161.5 31 L 161.5 30 Z " /><path fill="rgb(112,167,196)" stroke="rgb(112,167,196)" stroke-width="1" opacity="0.24705882352941178" d="M 332.5 30 Q 335.5 31.5 332.5 33 L 332.5 30 Z " /><path fill="rgb(112,167,196)" stroke="rgb(112,167,196)" stroke-width="1" opacity="0.24705882352941178" d="M 143.5 31 L 160 31.5 L 143.5 32 L 143.5 31 Z " /><path fill="rgb(112,167,196)" stroke="rgb(112,167,196)" stroke-width="1" opacity="0.24705882352941178" d="M 330.5 31 L 329.5 33 L 330.5 31 Z " /><path fill="rgb(112,167,196)" stroke="rgb(112,167,196)" stroke-width="1" opacity="0.24705882352941178" d="M 133.5 32 L 137 32.5 L 133.5 33 L 133.5 32 Z " /><path fill="rgb(112,167,196)" stroke="rgb(112,167,196)" stroke-width="1" opacity="0.24705882352941178" d="M 168.5 32 L 176 32.5 L 168.5 33 L 168.5 32 Z " /><path fill="rgb(112,167,196)" stroke="rgb(112,167,196)" stroke-width="1" opacity="0.24705882352941178" d="M 335.5 32 L 335.5 35 L 333 34.5 L 335.5 32 Z " /><path fill="rgb(112,167,196)" stroke="rgb(112,167,196)" stroke-width="1" opacity="0.24705882352941178" d="M 181.5 33 L 182 35.5 L 181 35.5 L 181.5 33 Z " /><path fill="rgb(112,167,196)" stroke="rgb(112,167,196)" stroke-width="1" opacity="0.24705882352941178" d="M 339.5 36 L 341.5 37 L 343 36.5 L 343 38.5 L 342.5 40 L 342 38 Q 337.5 39.3 339.5 36 Z " /><path fill="rgb(112,167,196)" stroke="rgb(112,167,196)" stroke-width="1" opacity="0.24705882352941178" d="M 344.5 37 L 346 38.5 L 345.5 41 L 344 39.5 L 344.5 37 Z " /><path fill="rgb(112,167,196)" stroke="rgb(112,167,196)" stroke-width="1" opacity="0.24705882352941178" d="M 347.5 39 L 349 40.5 L 348.5 43 L 347 41.5 L 347.5 39 Z " /><path fill="rgb(112,167,196)" stroke="rgb(112,167,196)" stroke-width="1" opacity="0.24705882352941178" d="M 350.5 41 L 353.5 46 L 355 45.5 L 354.5 44 L 357.5 50 L 350 45 L 351 42.5 L 350.5 41 Z " /><path fill="rgb(112,167,196)" stroke="rgb(112,167,196)" stroke-width="1" opacity="0.24705882352941178" d="M 435.5 44 L 434.5 46 L 435.5 44 Z " /><path fill="rgb(112,167,196)" stroke="rgb(112,167,196)" stroke-width="1" opacity="0.24705882352941178" d="M 358.5 47 L 362 50.5 L 361 51.5 L 363.5 55 L 359 50.5 L 360 49.5 L 358.5 47 Z " /><path fill="rgb(112,167,196)" stroke="rgb(112,167,196)" stroke-width="1" opacity="0.24705882352941178" d="M 434.5 53 L 433.5 55 L 432 54.5 L 434.5 53 Z " /><path fill="rgb(112,167,196)" stroke="rgb(112,167,196)" stroke-width="1" opacity="0.24705882352941178" d="M 366.5 54 L 373.5 62 L 366.5 54 Z " /><path fill="rgb(112,167,196)" stroke="rgb(112,167,196)" stroke-width="1" opacity="0.24705882352941178" d="M 374.5 65 L 378 66.5 L 377.5 69 L 374.5 65 Z " /><path fill="rgb(112,167,196)" stroke="rgb(112,167,196)" stroke-width="1" opacity="0.24705882352941178" d="M 79.5 72 L 89 72.5 L 79.5 73 L 79.5 72 Z " /><path fill="rgb(112,167,196)" stroke="rgb(112,167,196)" stroke-width="1" opacity="0.24705882352941178" d="M 106.5 78 L 113.5 86 L 106.5 78 Z " /><path fill="rgb(112,167,196)" stroke="rgb(112,167,196)" stroke-width="1" opacity="0.24705882352941178" d="M 462.5 84 L 463 86.5 L 462 86.5 L 462.5 84 Z " /><path fill="rgb(112,167,196)" stroke="rgb(112,167,196)" stroke-width="1" opacity="0.24705882352941178" d="M 378.5 88 L 383.5 94 L 378 90 L 378.5 88 Z " /><path fill="rgb(112,167,196)" stroke="rgb(112,167,196)" stroke-width="1" opacity="0.24705882352941178" d="M 117.5 90 L 119.5 93 L 117.5 90 Z " /><path fill="rgb(112,167,196)" stroke="rgb(112,167,196)" stroke-width="1" opacity="0.24705882352941178" d="M 233.5 90 L 236 90.5 L 233.5 91 L 233.5 90 Z " /><path fill="rgb(112,167,196)" stroke="rgb(112,167,196)" stroke-width="1" opacity="0.24705882352941178" d="M 235.5 92 L 238 92.5 L 235.5 93 L 235.5 92 Z " /><path fill="rgb(112,167,196)" stroke="rgb(112,167,196)" stroke-width="1" opacity="0.24705882352941178" d="M 245.5 92 L 248 92.5 L 242.5 94 L 242.5 93 L 245.5 92 Z " /><path fill="rgb(112,167,196)" stroke="rgb(112,167,196)" stroke-width="1" opacity="0.24705882352941178" d="M 255.5 93 L 256.5 95 Q 253.7 95.7 255.5 93 Z " /><path fill="rgb(112,167,196)" stroke="rgb(112,167,196)" stroke-width="1" opacity="0.24705882352941178" d="M 385.5 94 L 388.5 98 L 385.5 94 Z " /><path fill="rgb(112,167,196)" stroke="rgb(112,167,196)" stroke-width="1" opacity="0.24705882352941178" d="M 48.5 98 L 49.5 100 L 48.5 98 Z " /><path fill="rgb(112,167,196)" stroke="rgb(112,167,196)" stroke-width="1" opacity="0.24705882352941178" d="M 390.5 98 L 393.5 102 L 390.5 98 Z " /><path fill="rgb(112,167,196)" stroke="rgb(112,167,196)" stroke-width="1" opacity="0.24705882352941178" d="M 395.5 102 L 398.5 106 L 395.5 102 Z " /><path fill="rgb(112,167,196)" stroke="rgb(112,167,196)" stroke-width="1" opacity="0.24705882352941178" d="M 370.5 103 L 372.5 106 L 370.5 103 Z " /><path fill="rgb(112,167,196)" stroke="rgb(112,167,196)" stroke-width="1" opacity="0.24705882352941178" d="M 47.5 105 L 45.5 108 L 44 107.5 L 47.5 105 Z " /><path fill="rgb(112,167,196)" stroke="rgb(112,167,196)" stroke-width="1" opacity="0.24705882352941178" d="M 86.5 105 L 88.5 108 L 86.5 105 Z " /><path fill="rgb(112,167,196)" stroke="rgb(112,167,196)" stroke-width="1" opacity="0.24705882352941178" d="M 210.5 106 L 219 106.5 L 210.5 107 L 210.5 106 Z " /><path fill="rgb(112,167,196)" stroke="rgb(112,167,196)" stroke-width="1" opacity="0.24705882352941178" d="M 223.5 106 L 228 106.5 L 223.5 107 L 223.5 106 Z " /><path fill="rgb(112,167,196)" stroke="rgb(112,167,196)" stroke-width="1" opacity="0.24705882352941178" d="M 374.5 106 L 376.5 109 L 374.5 106 Z " /><path fill="rgb(112,167,196)" stroke="rgb(112,167,196)" stroke-width="1" opacity="0.24705882352941178" d="M 400.5 106 L 404.5 111 L 400.5 106 Z " /><path fill="rgb(112,167,196)" stroke="rgb(112,167,196)" stroke-width="1" opacity="0.24705882352941178" d="M 202.5 107 L 205 107.5 L 202.5 108 L 202.5 107 Z " /><path fill="rgb(112,167,196)" stroke="rgb(112,167,196)" stroke-width="1" opacity="0.24705882352941178" d="M 196.5 108 L 199 108.5 L 196.5 109 L 196.5 108 Z " /><path fill="rgb(112,167,196)" stroke="rgb(112,167,196)" stroke-width="1" opacity="0.24705882352941178" d="M 96.5 110 L 100 110.5 L 96.5 111 L 96.5 110 Z " /><path fill="rgb(112,167,196)" stroke="rgb(112,167,196)" stroke-width="1" opacity="0.24705882352941178" d="M 101.5 110 L 110.5 120 L 101.5 110 Z " /><path fill="rgb(112,167,196)" stroke="rgb(112,167,196)" stroke-width="1" opacity="0.24705882352941178" d="M 379.5 110 L 381.5 113 L 379.5 110 Z " /><path fill="rgb(112,167,196)" stroke="rgb(112,167,196)" stroke-width="1" opacity="0.24705882352941178" d="M 179.5 112 L 182 112.5 L 179.5 113 L 179.5 112 Z " /><path fill="rgb(112,167,196)" stroke="rgb(112,167,196)" stroke-width="1" opacity="0.24705882352941178" d="M 383.5 113 L 385.5 116 L 383.5 113 Z " /><path fill="rgb(112,167,196)" stroke="rgb(112,167,196)" stroke-width="1" opacity="0.24705882352941178" d="M 404.5 113 L 404 114.5 L 401.5 118 L 403 115.5 L 404.5 113 Z " /><path fill="rgb(112,167,196)" stroke="rgb(112,167,196)" stroke-width="1" opacity="0.24705882352941178" d="M 465.5 115 L 466 117.5 L 465 117.5 L 465.5 115 Z " /><path fill="rgb(112,167,196)" stroke="rgb(112,167,196)" stroke-width="1" opacity="0.24705882352941178" d="M 254.5 116 L 257 117.5 L 255.5 118 L 254.5 116 Z " /><path fill="rgb(112,167,196)" stroke="rgb(112,167,196)" stroke-width="1" opacity="0.24705882352941178" d="M 388.5 117 L 395 122.5 L 391.5 120 L 388.5 117 Z " /><path fill="rgb(112,167,196)" stroke="rgb(112,167,196)" stroke-width="1" opacity="0.24705882352941178" d="M 400.5 119 L 397.5 123 L 400.5 119 Z " /><path fill="rgb(112,167,196)" stroke="rgb(112,167,196)" stroke-width="1" opacity="0.24705882352941178" d="M 465.5 124 L 464.5 126 L 465.5 124 Z " /><path fill="rgb(112,167,196)" stroke="rgb(112,167,196)" stroke-width="1" opacity="0.24705882352941178" d="M 279.5 129 L 282 130.5 L 280.5 131 L 279.5 129 Z " /><path fill="rgb(112,167,196)" stroke="rgb(112,167,196)" stroke-width="1" opacity="0.24705882352941178" d="M 283.5 131 L 287 133.5 L 285.5 133 L 283.5 131 Z " /><path fill="rgb(112,167,196)" stroke="rgb(112,167,196)" stroke-width="1" opacity="0.24705882352941178" d="M 288.5 134 L 290.5 137 L 288.5 134 Z " /><path fill="rgb(112,167,196)" stroke="rgb(112,167,196)" stroke-width="1" opacity="0.24705882352941178" d="M 460.5 134 L 459.5 136 L 458 135.5 L 460.5 134 Z " /><path fill="rgb(112,167,196)" stroke="rgb(112,167,196)" stroke-width="1" opacity="0.24705882352941178" d="M 129.5 136 L 130.5 138 L 129.5 136 Z " /><path fill="rgb(112,167,196)" stroke="rgb(112,167,196)" stroke-width="1" opacity="0.24705882352941178" d="M 292.5 137 L 293.5 139 L 292.5 137 Z " /><path fill="rgb(112,167,196)" stroke="rgb(112,167,196)" stroke-width="1" opacity="0.24705882352941178" d="M 452.5 137 L 454 137.5 L 450.5 139 L 450.5 138 L 452.5 137 Z " /><path fill="rgb(112,167,196)" stroke="rgb(112,167,196)" stroke-width="1" opacity="0.24705882352941178" d="M 439.5 139 L 443 141.5 L 441.5 142 L 439.5 139 Z " /><path fill="rgb(112,167,196)" stroke="rgb(112,167,196)" stroke-width="1" opacity="0.24705882352941178" d="M 76.5 140 L 81 140.5 L 76.5 141 L 76.5 140 Z " /><path fill="rgb(112,167,196)" stroke="rgb(112,167,196)" stroke-width="1" opacity="0.24705882352941178" d="M 296.5 140 L 299.5 144 L 296.5 140 Z " /><path fill="rgb(112,167,196)" stroke="rgb(112,167,196)" stroke-width="1" opacity="0.24705882352941178" d="M 73.5 141 L 74 143.5 L 70.5 147 L 73.5 141 Z " /><path fill="rgb(112,167,196)" stroke="rgb(112,167,196)" stroke-width="1" opacity="0.24705882352941178" d="M 82.5 141 L 84 141.5 L 80.5 143 L 80.5 142 L 82.5 141 Z " /><path fill="rgb(112,167,196)" stroke="rgb(112,167,196)" stroke-width="1" opacity="0.24705882352941178" d="M 85.5 142 Q 90 144 86.5 146 L 85.5 142 Z " /><path fill="rgb(112,167,196)" stroke="rgb(112,167,196)" stroke-width="1" opacity="0.24705882352941178" d="M 199.5 148 L 199 149.5 L 197.5 152 L 198 150.5 L 199.5 148 Z " /><path fill="rgb(112,167,196)" stroke="rgb(112,167,196)" stroke-width="1" opacity="0.24705882352941178" d="M 305.5 148 L 312.5 156 L 305.5 148 Z " /><path fill="rgb(112,167,196)" stroke="rgb(112,167,196)" stroke-width="1" opacity="0.24705882352941178" d="M 406.5 148 L 417.5 148 L 419 149.5 L 418.5 161 L 418 149 L 406.5 149 L 406.5 148 Z " /><path fill="rgb(112,167,196)" stroke="rgb(112,167,196)" stroke-width="1" opacity="0.24705882352941178" d="M 66.5 151 L 68 156.5 L 67 156.5 L 66.5 151 Z " /><path fill="rgb(112,167,196)" stroke="rgb(112,167,196)" stroke-width="1" opacity="0.24705882352941178" d="M 177.5 151 L 181 151.5 L 177.5 152 L 177.5 151 Z " /><path fill="rgb(112,167,196)" stroke="rgb(112,167,196)" stroke-width="1" opacity="0.24705882352941178" d="M 163.5 152 L 170 152.5 L 163.5 153 L 163.5 152 Z " /><path fill="rgb(112,167,196)" stroke="rgb(112,167,196)" stroke-width="1" opacity="0.24705882352941178" d="M 195.5 154 L 193.5 157 L 195.5 154 Z " /><path fill="rgb(112,167,196)" stroke="rgb(112,167,196)" stroke-width="1" opacity="0.24705882352941178" d="M 65.5 156 L 66 166.5 L 65 166.5 L 65.5 156 Z " /><path fill="rgb(112,167,196)" stroke="rgb(112,167,196)" stroke-width="1" opacity="0.24705882352941178" d="M 315.5 159 L 321.5 166 L 315.5 159 Z " /><path fill="rgb(112,167,196)" stroke="rgb(112,167,196)" stroke-width="1" opacity="0.24705882352941178" d="M 67.5 166 L 68 170.5 L 66.5 174 L 66 171.5 L 67.5 166 Z " /><path fill="rgb(112,167,196)" stroke="rgb(112,167,196)" stroke-width="1" opacity="0.24705882352941178" d="M 323.5 168 L 329.5 175 L 323.5 168 Z " /><path fill="rgb(112,167,196)" stroke="rgb(112,167,196)" stroke-width="1" opacity="0.24705882352941178" d="M 333.5 179 L 338.5 185 L 333.5 179 Z " /><path fill="rgb(112,167,196)" stroke="rgb(112,167,196)" stroke-width="1" opacity="0.24705882352941178" d="M 73.5 191 L 74 192.5 L 72.5 195 L 72 193.5 L 73.5 191 Z " /><path fill="rgb(112,167,196)" stroke="rgb(112,167,196)" stroke-width="1" opacity="0.24705882352941178" d="M 346.5 193 L 352.5 200 L 346.5 193 Z " /><path fill="rgb(112,167,196)" stroke="rgb(112,167,196)" stroke-width="1" opacity="0.24705882352941178" d="M 283.5 194 L 281.5 197 L 283.5 194 Z " /><path fill="rgb(112,167,196)" stroke="rgb(112,167,196)" stroke-width="1" opacity="0.24705882352941178" d="M 165.5 196 L 164.5 198 L 165.5 196 Z " /><path fill="rgb(112,167,196)" stroke="rgb(112,167,196)" stroke-width="1" opacity="0.24705882352941178" d="M 280.5 198 L 279.5 200 L 280.5 198 Z " /><path fill="rgb(112,167,196)" stroke="rgb(112,167,196)" stroke-width="1" opacity="0.24705882352941178" d="M 290.5 198 L 291.5 200 L 290.5 198 Z " /><path fill="rgb(112,167,196)" stroke="rgb(112,167,196)" stroke-width="1" opacity="0.24705882352941178" d="M 278.5 201 L 276.5 204 L 278.5 201 Z " /><path fill="rgb(112,167,196)" stroke="rgb(112,167,196)" stroke-width="1" opacity="0.24705882352941178" d="M 294.5 201 L 295.5 203 L 294.5 201 Z " /><path fill="rgb(112,167,196)" stroke="rgb(112,167,196)" stroke-width="1" opacity="0.24705882352941178" d="M 398.5 201 L 402 201.5 L 398.5 202 L 398.5 201 Z " /><path fill="rgb(112,167,196)" stroke="rgb(112,167,196)" stroke-width="1" opacity="0.24705882352941178" d="M 297.5 202 L 300 203.5 L 298.5 203 L 297.5 202 Z " /><path fill="rgb(112,167,196)" stroke="rgb(112,167,196)" stroke-width="1" opacity="0.24705882352941178" d="M 79.5 206 L 81 208.5 L 78 208.5 L 79.5 206 Z " /><path fill="rgb(112,167,196)" stroke="rgb(112,167,196)" stroke-width="1" opacity="0.24705882352941178" d="M 273.5 208 L 272.5 210 L 273.5 208 Z " /><path fill="rgb(112,167,196)" stroke="rgb(112,167,196)" stroke-width="1" opacity="0.24705882352941178" d="M 306.5 208 L 307.5 210 L 306.5 208 Z " /><path fill="rgb(112,167,196)" stroke="rgb(112,167,196)" stroke-width="1" opacity="0.24705882352941178" d="M 81.5 210 L 82 211.5 L 80.5 214 L 80 212.5 L 81.5 210 Z " /><path fill="rgb(112,167,196)" stroke="rgb(112,167,196)" stroke-width="1" opacity="0.24705882352941178" d="M 310.5 211 L 311.5 213 L 310.5 211 Z " /><path fill="rgb(112,167,196)" stroke="rgb(112,167,196)" stroke-width="1" opacity="0.24705882352941178" d="M 428.5 212 L 429.5 214 L 428.5 212 Z " /><path fill="rgb(112,167,196)" stroke="rgb(112,167,196)" stroke-width="1" opacity="0.24705882352941178" d="M 157.5 214 L 158.5 216 L 157.5 214 Z " /><path fill="rgb(112,167,196)" stroke="rgb(112,167,196)" stroke-width="1" opacity="0.24705882352941178" d="M 269.5 214 L 268.5 216 L 269.5 214 Z " /><path fill="rgb(112,167,196)" stroke="rgb(112,167,196)" stroke-width="1" opacity="0.24705882352941178" d="M 81.5 215 L 84 215.5 L 82.5 218 L 81.5 215 Z " /><path fill="rgb(112,167,196)" stroke="rgb(112,167,196)" stroke-width="1" opacity="0.24705882352941178" d="M 317.5 216 L 318.5 218 L 317.5 216 Z " /><path fill="rgb(112,167,196)" stroke="rgb(112,167,196)" stroke-width="1" opacity="0.24705882352941178" d="M 267.5 217 L 266.5 219 L 267.5 217 Z " /><path fill="rgb(112,167,196)" stroke="rgb(112,167,196)" stroke-width="1" opacity="0.24705882352941178" d="M 83.5 219 L 87 220.5 L 84.5 221 L 83.5 219 Z " /><path fill="rgb(112,167,196)" stroke="rgb(112,167,196)" stroke-width="1" opacity="0.24705882352941178" d="M 423.5 219 L 424 221.5 L 423 221.5 L 423.5 219 Z " /><path fill="rgb(112,167,196)" stroke="rgb(112,167,196)" stroke-width="1" opacity="0.24705882352941178" d="M 265.5 220 L 264.5 222 L 265.5 220 Z " /><path fill="rgb(112,167,196)" stroke="rgb(112,167,196)" stroke-width="1" opacity="0.24705882352941178" d="M 87.5 222 L 89 225.5 L 87 226.5 L 88 224.5 L 86 224.5 L 87.5 222 Z " /><path fill="rgb(112,167,196)" stroke="rgb(112,167,196)" stroke-width="1" opacity="0.24705882352941178" d="M 263.5 223 L 262.5 225 L 263.5 223 Z " /><path fill="rgb(112,167,196)" stroke="rgb(112,167,196)" stroke-width="1" opacity="0.24705882352941178" d="M 261.5 226 L 260.5 228 L 261.5 226 Z " /><path fill="rgb(112,167,196)" stroke="rgb(112,167,196)" stroke-width="1" opacity="0.24705882352941178" d="M 259.5 229 L 258.5 231 L 259.5 229 Z " /><path fill="rgb(112,167,196)" stroke="rgb(112,167,196)" stroke-width="1" opacity="0.24705882352941178" d="M 352.5 231 L 355 231.5 L 352.5 232 L 352.5 231 Z " /><path fill="rgb(112,167,196)" stroke="rgb(112,167,196)" stroke-width="1" opacity="0.24705882352941178" d="M 257.5 232 L 256.5 234 L 257.5 232 Z " /><path fill="rgb(112,167,196)" stroke="rgb(112,167,196)" stroke-width="1" opacity="0.24705882352941178" d="M 253.5 238 L 252.5 240 L 253.5 238 Z " /><path fill="rgb(112,167,196)" stroke="rgb(112,167,196)" stroke-width="1" opacity="0.24705882352941178" d="M 249.5 244 L 248.5 246 L 249.5 244 Z " /><path fill="rgb(112,167,196)" stroke="rgb(112,167,196)" stroke-width="1" opacity="0.24705882352941178" d="M 244.5 252 L 243.5 254 L 244.5 252 Z " /><path fill="rgb(112,167,196)" stroke="rgb(112,167,196)" stroke-width="1" opacity="0.24705882352941178" d="M 242.5 255 L 241.5 257 L 242.5 255 Z " /><path fill="rgb(112,167,196)" stroke="rgb(112,167,196)" stroke-width="1" opacity="0.24705882352941178" d="M 121.5 276 L 123.5 279 Q 121.8 275.9 120 277.5 L 121.5 276 Z " /><path fill="rgb(112,167,196)" stroke="rgb(112,167,196)" stroke-width="1" opacity="0.24705882352941178" d="M 471.5 277 L 473.5 277 L 476 279.5 L 473.5 278 L 472.5 279 L 471.5 277 Z " /><path fill="rgb(112,167,196)" stroke="rgb(112,167,196)" stroke-width="1" opacity="0.24705882352941178" d="M 121.5 279 L 127 282.5 L 124.5 281 L 123.5 282 L 121.5 279 Z " /><path fill="rgb(112,167,196)" stroke="rgb(112,167,196)" stroke-width="1" opacity="0.24705882352941178" d="M 474.5 281 L 475.5 283 L 474.5 281 Z " /><path fill="rgb(112,167,196)" stroke="rgb(112,167,196)" stroke-width="1" opacity="0.24705882352941178" d="M 477.5 282 L 478.5 284 L 477.5 282 Z " /><path fill="rgb(112,167,196)" stroke="rgb(112,167,196)" stroke-width="1" opacity="0.24705882352941178" d="M 124.5 283 L 130 286.5 L 127.5 285 L 126.5 286 L 124.5 283 Z " /><path fill="rgb(112,167,196)" stroke="rgb(112,167,196)" stroke-width="1" opacity="0.24705882352941178" d="M 476.5 284 L 477.5 286 L 476.5 284 Z " /><path fill="rgb(112,167,196)" stroke="rgb(112,167,196)" stroke-width="1" opacity="0.24705882352941178" d="M 127.5 287 L 133 290.5 L 130.5 289 L 129.5 290 L 127.5 287 Z " /><path fill="rgb(112,167,196)" stroke="rgb(112,167,196)" stroke-width="1" opacity="0.24705882352941178" d="M 480.5 287 L 481.5 289 L 480.5 287 Z " /><path fill="rgb(112,167,196)" stroke="rgb(112,167,196)" stroke-width="1" opacity="0.24705882352941178" d="M 479.5 289 L 480.5 291 L 479.5 289 Z " /><path fill="rgb(112,167,196)" stroke="rgb(112,167,196)" stroke-width="1" opacity="0.24705882352941178" d="M 130.5 291 L 136 294.5 L 133.5 293 L 132.5 294 L 130.5 291 Z " /><path fill="rgb(112,167,196)" stroke="rgb(112,167,196)" stroke-width="1" opacity="0.24705882352941178" d="M 485.5 298 L 486 299.5 L 484.5 303 L 484 300.5 L 485.5 298 Z " /><path fill="rgb(112,167,196)" stroke="rgb(112,167,196)" stroke-width="1" opacity="0.24705882352941178" d="M 141.5 302 L 143.5 305 Q 141.8 301.9 140 303.5 L 141.5 302 Z " /><path fill="rgb(112,167,196)" stroke="rgb(112,167,196)" stroke-width="1" opacity="0.24705882352941178" d="M 141.5 305 L 147 308.5 L 144.5 309 L 141.5 305 Z " /><path fill="rgb(112,167,196)" stroke="rgb(112,167,196)" stroke-width="1" opacity="0.24705882352941178" d="M 485.5 306 L 486 308.5 L 485 308.5 L 485.5 306 Z " /><path fill="rgb(112,167,196)" stroke="rgb(112,167,196)" stroke-width="1" opacity="0.24705882352941178" d="M 487.5 308 L 488 314.5 L 487 314.5 L 487.5 308 Z " /><path fill="rgb(112,167,196)" stroke="rgb(112,167,196)" stroke-width="1" opacity="0.24705882352941178" d="M 407 311 Q 409.7 309.9 409 312.5 L 411 315.5 L 409 314.5 Q 409.7 311.9 407 313 L 405.5 316 L 406 314.5 L 407 311 Z " /><path fill="rgb(112,167,196)" stroke="rgb(112,167,196)" stroke-width="1" opacity="0.24705882352941178" d="M 485.5 314 L 486 316.5 L 485 316.5 L 485.5 314 Z " /><path fill="rgb(112,167,196)" stroke="rgb(112,167,196)" stroke-width="1" opacity="0.24705882352941178" d="M 404.5 317 L 403.5 319 L 404.5 317 Z " /><path fill="rgb(112,167,196)" stroke="rgb(112,167,196)" stroke-width="1" opacity="0.24705882352941178" d="M 411.5 317 L 415 322.5 L 413 321.5 L 411.5 317 Z " /><path fill="rgb(112,167,196)" stroke="rgb(112,167,196)" stroke-width="1" opacity="0.24705882352941178" d="M 402.5 320 L 403 321.5 L 401 322.5 L 402.5 320 Z " /><path fill="rgb(112,167,196)" stroke="rgb(112,167,196)" stroke-width="1" opacity="0.24705882352941178" d="M 501.5 325 L 502 327.5 L 500.5 329 L 500 326.5 L 501.5 325 Z " /><path fill="rgb(112,167,196)" stroke="rgb(112,167,196)" stroke-width="1" opacity="0.24705882352941178" d="M 494.5 329 L 495 331.5 L 493.5 333 L 493 330.5 L 494.5 329 Z " /><path fill="rgb(112,167,196)" stroke="rgb(112,167,196)" stroke-width="1" opacity="0.24705882352941178" d="M 479.5 332 L 482 332.5 L 479.5 335 L 477 334.5 L 479.5 332 Z " /><path fill="rgb(112,167,196)" stroke="rgb(112,167,196)" stroke-width="1" opacity="0.24705882352941178" d="M 487.5 333 L 488 335.5 L 486.5 337 L 486 334.5 L 487.5 333 Z " /><path fill="rgb(112,167,196)" stroke="rgb(112,167,196)" stroke-width="1" opacity="0.24705882352941178" d="M 280.5 336 L 281 339.5 L 280 339.5 L 280.5 336 Z " /><path fill="rgb(112,167,196)" stroke="rgb(112,167,196)" stroke-width="1" opacity="0.24705882352941178" d="M 288.5 336 L 288.5 339 Q 285.5 337.5 288.5 336 Z " /><path fill="rgb(112,167,196)" stroke="rgb(112,167,196)" stroke-width="1" opacity="0.24705882352941178" d="M 478.5 336 L 477.5 340 L 476 339.5 Q 476.8 341.8 474.5 341 L 473 341.5 L 478.5 336 Z " /><path fill="rgb(112,167,196)" stroke="rgb(112,167,196)" stroke-width="1" opacity="0.24705882352941178" d="M 290.5 339 L 296.5 346 L 290.5 339 Z " /><path fill="rgb(112,167,196)" stroke="rgb(112,167,196)" stroke-width="1" opacity="0.24705882352941178" d="M 480.5 339 L 479.5 341 L 480.5 339 Z " /><path fill="rgb(112,167,196)" stroke="rgb(112,167,196)" stroke-width="1" opacity="0.24705882352941178" d="M 294.5 340 L 296.5 343 L 294.5 340 Z " /><path fill="rgb(112,167,196)" stroke="rgb(112,167,196)" stroke-width="1" opacity="0.24705882352941178" d="M 283.5 341 L 284.5 343 L 283.5 341 Z " /><path fill="rgb(112,167,196)" stroke="rgb(112,167,196)" stroke-width="1" opacity="0.24705882352941178" d="M 469.5 342 L 466.5 346 L 469.5 342 Z " /><path fill="rgb(112,167,196)" stroke="rgb(112,167,196)" stroke-width="1" opacity="0.24705882352941178" d="M 282.5 343 L 286.5 347 Q 287.8 344.8 289 347.5 L 288 348.5 L 291.5 353 L 282.5 343 Z " /><path fill="rgb(112,167,196)" stroke="rgb(112,167,196)" stroke-width="1" opacity="0.24705882352941178" d="M 473.5 343 L 472.5 345 L 473.5 343 Z " /><path fill="rgb(112,167,196)" stroke="rgb(112,167,196)" stroke-width="1" opacity="0.24705882352941178" d="M 298.5 345 L 299.5 347 L 298.5 345 Z " /><path fill="rgb(112,167,196)" stroke="rgb(112,167,196)" stroke-width="1" opacity="0.24705882352941178" d="M 466.5 347 L 465.5 349 L 466.5 347 Z " /><path fill="rgb(112,167,196)" stroke="rgb(112,167,196)" stroke-width="1" opacity="0.24705882352941178" d="M 292.5 350 L 295 352.5 L 294.5 355 L 292.5 350 Z " /><path fill="rgb(112,167,196)" stroke="rgb(112,167,196)" stroke-width="1" opacity="0.24705882352941178" d="M 455.5 350 L 458 350.5 L 455.5 351 L 455.5 350 Z " /><path fill="rgb(112,167,196)" stroke="rgb(112,167,196)" stroke-width="1" opacity="0.24705882352941178" d="M 459.5 351 L 458.5 353 L 459.5 351 Z " /><path fill="rgb(112,167,196)" stroke="rgb(112,167,196)" stroke-width="1" opacity="0.24705882352941178" d="M 450.5 352 L 451 354.5 L 450 354.5 L 450.5 352 Z " /><path fill="rgb(112,167,196)" stroke="rgb(112,167,196)" stroke-width="1" opacity="0.24705882352941178" d="M 296.5 353 L 297.5 355 L 296.5 353 Z " /><path fill="rgb(112,167,196)" stroke="rgb(112,167,196)" stroke-width="1" opacity="0.24705882352941178" d="M 299.5 355 L 301 356.5 L 300.5 359 L 299 357.5 L 299.5 355 Z " /><path fill="rgb(112,167,196)" stroke="rgb(112,167,196)" stroke-width="1" opacity="0.24705882352941178" d="M 453.5 357 L 456 357.5 L 453.5 358 L 453.5 357 Z " /><path fill="rgb(112,167,196)" stroke="rgb(112,167,196)" stroke-width="1" opacity="0.24705882352941178" d="M 302.5 359 L 303.5 361 L 302.5 359 Z " /><path fill="rgb(112,167,196)" stroke="rgb(112,167,196)" stroke-width="1" opacity="0.24705882352941178" d="M 443.5 360 L 442.5 362 L 443.5 360 Z " /><path fill="rgb(112,167,196)" stroke="rgb(112,167,196)" stroke-width="1" opacity="0.24705882352941178" d="M 305.5 361 L 307 361.5 L 305 362 L 304.5 365 L 304 362.5 L 305.5 361 Z " /><path fill="rgb(112,167,196)" stroke="rgb(112,167,196)" stroke-width="1" opacity="0.24705882352941178" d="M 310.5 361 L 312 361.5 L 308.5 363 L 308.5 362 L 310.5 361 Z " /><path fill="rgb(112,167,196)" stroke="rgb(112,167,196)" stroke-width="1" opacity="0.24705882352941178" d="M 435 362 L 437 362.5 L 435 363.5 L 435 362 Z " /><path fill="rgb(112,167,196)" stroke="rgb(112,167,196)" stroke-width="1" opacity="0.24705882352941178" d="M 315.5 363 L 317 363.5 L 313.5 365 L 313.5 364 L 315.5 363 Z " /><path fill="rgb(112,167,196)" stroke="rgb(112,167,196)" stroke-width="1" opacity="0.24705882352941178" d="M 432.5 363 L 433.5 365 L 432.5 363 Z " /><path fill="rgb(112,167,196)" stroke="rgb(112,167,196)" stroke-width="1" opacity="0.24705882352941178" d="M 306.5 364 L 307 366.5 L 306 366.5 L 306.5 364 Z " /><path fill="rgb(112,167,196)" stroke="rgb(112,167,196)" stroke-width="1" opacity="0.24705882352941178" d="M 423.5 364 L 427 365.5 L 425.5 366 L 423.5 364 Z " /><path fill="rgb(112,167,196)" stroke="rgb(112,167,196)" stroke-width="1" opacity="0.24705882352941178" d="M 197.5 366 L 199.5 369 L 197.5 366 Z " /><path fill="rgb(112,167,196)" stroke="rgb(112,167,196)" stroke-width="1" opacity="0.24705882352941178" d="M 200.5 366 L 206 371.5 L 205 372.5 L 206.5 375 L 201 369.5 L 202 368.5 L 200.5 366 Z " /><path fill="rgb(112,167,196)" stroke="rgb(112,167,196)" stroke-width="1" opacity="0.24705882352941178" d="M 415.5 366 L 420 367.5 L 417.5 368 L 415.5 366 Z " /><path fill="rgb(112,167,196)" stroke="rgb(112,167,196)" stroke-width="1" opacity="0.24705882352941178" d="M 429.5 366 L 430 368.5 L 428.5 370 L 428 367.5 L 429.5 366 Z " /><path fill="rgb(112,167,196)" stroke="rgb(112,167,196)" stroke-width="1" opacity="0.24705882352941178" d="M 405.5 368 L 408 368.5 L 405.5 369 L 405.5 368 Z " /><path fill="rgb(112,167,196)" stroke="rgb(112,167,196)" stroke-width="1" opacity="0.24705882352941178" d="M 399.5 369 L 402 369.5 L 399.5 370 L 399.5 369 Z " /><path fill="rgb(112,167,196)" stroke="rgb(112,167,196)" stroke-width="1" opacity="0.24705882352941178" d="M 424.5 369 L 424.5 372 L 422 370.5 L 424.5 369 Z " /><path fill="rgb(112,167,196)" stroke="rgb(112,167,196)" stroke-width="1" opacity="0.24705882352941178" d="M 343.5 370 L 348 370.5 L 340.5 372 L 340.5 371 L 343.5 370 Z " /><path fill="rgb(112,167,196)" stroke="rgb(112,167,196)" stroke-width="1" opacity="0.24705882352941178" d="M 392.5 370 L 400 371.5 L 396.5 372 L 392.5 371 L 392.5 370 Z " /><path fill="rgb(112,167,196)" stroke="rgb(112,167,196)" stroke-width="1" opacity="0.24705882352941178" d="M 305.5 371 L 306 376.5 L 305 376.5 L 305.5 371 Z " /><path fill="rgb(112,167,196)" stroke="rgb(112,167,196)" stroke-width="1" opacity="0.24705882352941178" d="M 354.5 371 L 359 371.5 L 354.5 372 L 354.5 371 Z " /><path fill="rgb(112,167,196)" stroke="rgb(112,167,196)" stroke-width="1" opacity="0.24705882352941178" d="M 380.5 371 L 385 371.5 L 380.5 372 L 380.5 371 Z " /><path fill="rgb(112,167,196)" stroke="rgb(112,167,196)" stroke-width="1" opacity="0.24705882352941178" d="M 207.5 372 L 211 375.5 L 210 376.5 L 211.5 379 L 209 376.5 L 210 375.5 L 207.5 372 Z " /><path fill="rgb(112,167,196)" stroke="rgb(112,167,196)" stroke-width="1" opacity="0.24705882352941178" d="M 347.5 372 L 350 372.5 L 347.5 373 L 347.5 372 Z " /><path fill="rgb(112,167,196)" stroke="rgb(112,167,196)" stroke-width="1" opacity="0.24705882352941178" d="M 389.5 372 L 393 372.5 L 389.5 373 L 389.5 372 Z " /><path fill="rgb(112,167,196)" stroke="rgb(112,167,196)" stroke-width="1" opacity="0.24705882352941178" d="M 419.5 372 L 422 373.5 L 419.5 375 L 419.5 372 Z " /><path fill="rgb(112,167,196)" stroke="rgb(112,167,196)" stroke-width="1" opacity="0.24705882352941178" d="M 358.5 373 L 381 373.5 L 358.5 374 L 358.5 373 Z " /><path fill="rgb(112,167,196)" stroke="rgb(112,167,196)" stroke-width="1" opacity="0.24705882352941178" d="M 415.5 374 L 416 376.5 L 414.5 378 L 414 375.5 L 415.5 374 Z " /><path fill="rgb(112,167,196)" stroke="rgb(112,167,196)" stroke-width="1" opacity="0.24705882352941178" d="M 213.5 377 L 216 379.5 L 215.5 382 L 213 379.5 L 213.5 377 Z " /><path fill="rgb(112,167,196)" stroke="rgb(112,167,196)" stroke-width="1" opacity="0.24705882352941178" d="M 410.5 377 L 410.5 380 L 408 378.5 L 410.5 377 Z " /><path fill="rgb(112,167,196)" stroke="rgb(112,167,196)" stroke-width="1" opacity="0.24705882352941178" d="M 217.5 380 L 218.5 382 L 217.5 380 Z " /><path fill="rgb(112,167,196)" stroke="rgb(112,167,196)" stroke-width="1" opacity="0.24705882352941178" d="M 405.5 380 L 407.5 381 L 409 380.5 L 405.5 383 L 405.5 380 Z " /><path fill="rgb(112,167,196)" stroke="rgb(112,167,196)" stroke-width="1" opacity="0.24705882352941178" d="M 403.5 381 L 403.5 384 Q 400.5 382.5 403.5 381 Z " /><path fill="rgb(112,167,196)" stroke="rgb(112,167,196)" stroke-width="1" opacity="0.24705882352941178" d="M 218.5 383 L 219.5 385 L 218.5 383 Z " /><path fill="rgb(112,167,196)" stroke="rgb(112,167,196)" stroke-width="1" opacity="0.24705882352941178" d="M 221.5 383 L 224 385.5 L 223.5 388 L 221.5 383 Z " /><path fill="rgb(112,167,196)" stroke="rgb(112,167,196)" stroke-width="1" opacity="0.24705882352941178" d="M 304.5 384 L 306 389.5 L 305 389.5 L 304.5 384 Z " /><path fill="rgb(112,167,196)" stroke="rgb(112,167,196)" stroke-width="1" opacity="0.24705882352941178" d="M 225.5 388 L 226.5 390 L 225.5 388 Z " /><path fill="rgb(112,167,196)" stroke="rgb(112,167,196)" stroke-width="1" opacity="0.24705882352941178" d="M 228.5 388 L 230 389.5 L 229.5 392 L 228 390.5 L 228.5 388 Z " /><path fill="rgb(112,167,196)" stroke="rgb(112,167,196)" stroke-width="1" opacity="0.24705882352941178" d="M 233.5 391 L 235 392.5 L 234.5 395 L 233 393.5 L 233.5 391 Z " /><path fill="rgb(112,167,196)" stroke="rgb(112,167,196)" stroke-width="1" opacity="0.24705882352941178" d="M 302.5 393 L 304 396.5 L 303 396.5 L 302.5 393 Z " /><path fill="rgb(112,167,196)" stroke="rgb(112,167,196)" stroke-width="1" opacity="0.24705882352941178" d="M 238.5 394 L 240 395.5 L 239.5 398 L 238 396.5 L 238.5 394 Z " /><path fill="rgb(112,167,196)" stroke="rgb(112,167,196)" stroke-width="1" opacity="0.24705882352941178" d="M 300.5 398 L 299.5 400 L 300.5 398 Z " /><path fill="rgb(112,167,196)" stroke="rgb(112,167,196)" stroke-width="1" opacity="0.24705882352941178" d="M 251.5 401 L 250.5 403 L 249 402.5 L 251.5 401 Z " /><path fill="rgb(112,167,196)" stroke="rgb(112,167,196)" stroke-width="1" opacity="0.24705882352941178" d="M 298.5 401 L 301 401.5 L 297 404.5 L 298.5 401 Z " /><path fill="rgb(112,167,196)" stroke="rgb(112,167,196)" stroke-width="1" opacity="0.24705882352941178" d="M 295.5 403 L 294.5 405 L 295.5 403 Z " /><path fill="rgb(112,167,196)" stroke="rgb(112,167,196)" stroke-width="1" opacity="0.24705882352941178" d="M 208.5 406 L 212.5 411 L 208.5 406 Z " /><path fill="rgb(112,167,196)" stroke="rgb(112,167,196)" stroke-width="1" opacity="0.24705882352941178" d="M 265.5 406 L 267 406.5 L 263.5 408 L 263.5 407 L 265.5 406 Z " /><path fill="rgb(112,167,196)" stroke="rgb(112,167,196)" stroke-width="1" opacity="0.24705882352941178" d="M 277.5 408 L 282 408.5 L 277.5 409 L 277.5 408 Z " /><path fill="rgb(112,167,196)" stroke="rgb(112,167,196)" stroke-width="1" opacity="0.24705882352941178" d="M 397.5 408 L 399 408.5 L 396 410.5 L 398 414.5 L 397 414.5 L 396.5 412 L 395 412.5 L 395 410.5 L 397.5 408 Z " /><path fill="rgb(112,167,196)" stroke="rgb(112,167,196)" stroke-width="1" opacity="0.24705882352941178" d="M 272.5 409 L 276 409.5 L 272.5 410 L 272.5 409 Z " /><path fill="rgb(112,167,196)" stroke="rgb(112,167,196)" stroke-width="1" opacity="0.24705882352941178" d="M 283.5 409 L 287 409.5 L 283.5 410 L 283.5 409 Z " /><path fill="rgb(112,167,196)" stroke="rgb(112,167,196)" stroke-width="1" opacity="0.24705882352941178" d="M 399.5 410 L 400 412.5 L 399 412.5 L 399.5 410 Z " /><path fill="rgb(112,167,196)" stroke="rgb(112,167,196)" stroke-width="1" opacity="0.24705882352941178" d="M 393.5 411 L 392.5 413 L 393.5 411 Z " /><path fill="rgb(112,167,196)" stroke="rgb(112,167,196)" stroke-width="1" opacity="0.24705882352941178" d="M 215.5 413 L 216.5 415 L 215.5 413 Z " /><path fill="rgb(112,167,196)" stroke="rgb(112,167,196)" stroke-width="1" opacity="0.24705882352941178" d="M 389.5 414 L 391.5 415 L 393 414.5 L 388.5 418 L 388 415.5 L 389.5 414 Z " /><path fill="rgb(112,167,196)" stroke="rgb(112,167,196)" stroke-width="1" opacity="0.24705882352941178" d="M 386.5 416 L 386.5 419 L 384.5 418 L 383 418.5 L 386.5 416 Z " /><path fill="rgb(112,167,196)" stroke="rgb(112,167,196)" stroke-width="1" opacity="0.24705882352941178" d="M 398.5 416 L 399 418.5 L 398 418.5 L 398.5 416 Z " /><path fill="rgb(112,167,196)" stroke="rgb(112,167,196)" stroke-width="1" opacity="0.24705882352941178" d="M 396.5 418 L 398 423.5 L 397 423.5 L 396.5 418 Z " /><path fill="rgb(112,167,196)" stroke="rgb(112,167,196)" stroke-width="1" opacity="0.24705882352941178" d="M 402.5 419 L 401.5 421 L 402.5 419 Z " /><path fill="rgb(112,167,196)" stroke="rgb(112,167,196)" stroke-width="1" opacity="0.24705882352941178" d="M 405.5 419 L 406.5 421 L 405.5 419 Z " /><path fill="rgb(112,167,196)" stroke="rgb(112,167,196)" stroke-width="1" opacity="0.24705882352941178" d="M 378.5 420 L 380 420.5 L 378 421.5 Q 380.3 422.8 377.5 424 L 375.5 425 L 375.5 422 L 377.5 423 L 378.5 420 Z " /><path fill="rgb(112,167,196)" stroke="rgb(112,167,196)" stroke-width="1" opacity="0.24705882352941178" d="M 386.5 423 L 388 426.5 L 387 426.5 L 386.5 423 Z " /><path fill="rgb(112,167,196)" stroke="rgb(112,167,196)" stroke-width="1" opacity="0.24705882352941178" d="M 401.5 423 L 405 424.5 L 402.5 425 L 401.5 423 Z " /><path fill="rgb(112,167,196)" stroke="rgb(112,167,196)" stroke-width="1" opacity="0.24705882352941178" d="M 369.5 425 L 371 427.5 L 369 426.5 L 369.5 425 Z " /><path fill="rgb(112,167,196)" stroke="rgb(112,167,196)" stroke-width="1" opacity="0.24705882352941178" d="M 394.5 425 L 397 425.5 L 394.5 426 L 394.5 425 Z " /><path fill="rgb(112,167,196)" stroke="rgb(112,167,196)" stroke-width="1" opacity="0.24705882352941178" d="M 482.5 425 L 481.5 427 L 482.5 425 Z " /><path fill="rgb(112,167,196)" stroke="rgb(112,167,196)" stroke-width="1" opacity="0.24705882352941178" d="M 371.5 429 L 375 430.5 L 372.5 431 L 371.5 429 Z " /><path fill="rgb(112,167,196)" stroke="rgb(112,167,196)" stroke-width="1" opacity="0.24705882352941178" d="M 487.5 430 L 486.5 432 L 487.5 430 Z " /><path fill="rgb(112,167,196)" stroke="rgb(112,167,196)" stroke-width="1" opacity="0.24705882352941178" d="M 383.5 431 L 385 435 L 380 434.5 L 384 433.5 L 383.5 431 Z " /><path fill="rgb(112,167,196)" stroke="rgb(112,167,196)" stroke-width="1" opacity="0.24705882352941178" d="M 373.5 432 L 374.5 434 L 373.5 432 Z " /><path fill="rgb(112,167,196)" stroke="rgb(112,167,196)" stroke-width="1" opacity="0.24705882352941178" d="M 376.5 432 L 381 432.5 L 376.5 433 L 376.5 432 Z " /></svg>